<?xml version="1.0" encoding="UTF-8"?>
<!DOCTYPE svg PUBLIC "-//W3C//DTD SVG 1.1//EN" "http://www.w3.org/Graphics/SVG/1.1/DTD/svg11.dtd">
<svg xmlns="http://www.w3.org/2000/svg" version="1.1" width="512px" height="512px" style="shape-rendering:geometricPrecision; text-rendering:geometricPrecision; image-rendering:optimizeQuality; fill-rule:evenodd; clip-rule:evenodd" xmlns:xlink="http://www.w3.org/1999/xlink">
<g><path style="opacity:1" fill="#fefefe" d="M -0.5,-0.5 C 170.167,-0.5 340.833,-0.5 511.5,-0.5C 511.5,170.167 511.5,340.833 511.5,511.5C 340.833,511.5 170.167,511.5 -0.5,511.5C -0.5,340.833 -0.5,170.167 -0.5,-0.5 Z"/></g>
<g><path style="opacity:1" fill="#74bb3f" d="M 208.5,102.5 C 201.472,109.86 194.472,117.193 187.5,124.5C 173.076,138.757 159.909,154.091 148,170.5C 143.729,158.482 140.729,146.149 139,133.5C 138.467,147.434 140.633,160.934 145.5,174C 139.123,182.718 133.123,191.718 127.5,201C 128.793,201.49 130.127,201.657 131.5,201.5C 131.107,203.284 130.441,204.95 129.5,206.5C 126.14,206.616 122.807,206.949 119.5,207.5C 114.269,193.242 110.602,178.575 108.5,163.5C 110.255,165.803 111.422,168.47 112,171.5C 113,171.167 114,170.833 115,170.5C 117.668,171.98 117.835,173.48 115.5,175C 116.191,176.067 116.691,177.234 117,178.5C 118,176.833 119.333,175.5 121,174.5C 121.772,175.849 122.939,176.682 124.5,177C 123.346,177.914 123.513,178.747 125,179.5C 129.38,178.068 132.88,175.568 135.5,172C 134.747,170.513 133.914,170.346 133,171.5C 132.727,169.899 132.227,168.399 131.5,167C 133.7,166.536 136.033,166.036 138.5,165.5C 139.785,162.882 139.452,160.382 137.5,158C 138.591,155.936 138.758,153.769 138,151.5C 135.203,151.48 133.037,149.98 131.5,147C 134.758,143.451 134.758,140.118 131.5,137C 132.907,135.548 134.407,135.715 136,137.5C 136.687,135.432 136.52,133.432 135.5,131.5C 136.628,130.738 137.795,130.071 139,129.5C 140.53,130.92 142.363,131.92 144.5,132.5C 143.494,133.396 143.494,134.062 144.5,134.5C 145.287,133.758 145.953,132.925 146.5,132C 145.253,130.506 145.253,129.006 146.5,127.5C 148.343,128.939 150.01,128.772 151.5,127C 149.888,125.954 148.221,124.787 146.5,123.5C 145.833,123.833 145.167,124.167 144.5,124.5C 145.506,125.396 145.506,126.062 144.5,126.5C 142.108,124.237 139.441,123.903 136.5,125.5C 139.579,123.455 142.912,121.622 146.5,120C 162.651,114.061 178.985,108.727 195.5,104C 199.813,103.265 204.147,102.765 208.5,102.5 Z"/></g>
<g><path style="opacity:1" fill="#76be3d" d="M 108.5,163.5 C 107.895,160.873 107.395,158.207 107,155.5C 106.501,161.491 106.334,167.491 106.5,173.5C 106.665,176.85 106.498,180.183 106,183.5C 105.558,185.679 104.558,186.345 103,185.5C 102.457,187.631 101.624,189.631 100.5,191.5C 94.5371,191.436 88.5371,192.103 82.5,193.5C 81.3044,193.154 81.3044,192.654 82.5,192C 87.5589,191.706 87.7256,190.539 83,188.5C 82.3333,189.167 81.6667,189.833 81,190.5C 76.5071,185.823 76.0071,180.99 79.5,176C 78.0267,175.29 77.3601,174.124 77.5,172.5C 92.7779,151.357 112.445,135.69 136.5,125.5C 139.441,123.903 142.108,124.237 144.5,126.5C 145.506,126.062 145.506,125.396 144.5,124.5C 145.167,124.167 145.833,123.833 146.5,123.5C 148.221,124.787 149.888,125.954 151.5,127C 150.01,128.772 148.343,128.939 146.5,127.5C 145.253,129.006 145.253,130.506 146.5,132C 145.953,132.925 145.287,133.758 144.5,134.5C 143.494,134.062 143.494,133.396 144.5,132.5C 142.363,131.92 140.53,130.92 139,129.5C 137.795,130.071 136.628,130.738 135.5,131.5C 136.52,133.432 136.687,135.432 136,137.5C 134.407,135.715 132.907,135.548 131.5,137C 134.758,140.118 134.758,143.451 131.5,147C 133.037,149.98 135.203,151.48 138,151.5C 138.758,153.769 138.591,155.936 137.5,158C 139.452,160.382 139.785,162.882 138.5,165.5C 136.033,166.036 133.7,166.536 131.5,167C 132.227,168.399 132.727,169.899 133,171.5C 133.914,170.346 134.747,170.513 135.5,172C 132.88,175.568 129.38,178.068 125,179.5C 123.513,178.747 123.346,177.914 124.5,177C 122.939,176.682 121.772,175.849 121,174.5C 119.333,175.5 118,176.833 117,178.5C 116.691,177.234 116.191,176.067 115.5,175C 117.835,173.48 117.668,171.98 115,170.5C 114,170.833 113,171.167 112,171.5C 111.422,168.47 110.255,165.803 108.5,163.5 Z"/></g>
<g><path style="opacity:1" fill="#6ab53d" d="M 208.5,127.5 C 208.5,128.833 208.5,130.167 208.5,131.5C 204.732,132.137 201.899,134.137 200,137.5C 199.738,141.234 200.238,144.901 201.5,148.5C 200.401,152.096 199.067,155.596 197.5,159C 198.561,165.896 202.561,169.396 209.5,169.5C 209.309,177.84 208.976,186.174 208.5,194.5C 199.047,194.112 191.713,190.112 186.5,182.5C 186.672,181.508 186.338,180.842 185.5,180.5C 185.666,176.486 185.499,172.486 185,168.5C 177.553,161.38 176.553,153.38 182,144.5C 188.654,135.424 197.487,129.757 208.5,127.5 Z"/></g>
<g><path style="opacity:1" fill="#0b6a31" d="M 188.5,143.5 C 194.555,142.942 195.888,145.109 192.5,150C 187.57,150.427 186.237,148.26 188.5,143.5 Z"/></g>
<g><path style="opacity:1" fill="#0d6a33" d="M 208.5,131.5 C 208.521,140.182 208.854,148.848 209.5,157.5C 209.5,161.5 209.5,165.5 209.5,169.5C 202.561,169.396 198.561,165.896 197.5,159C 199.067,155.596 200.401,152.096 201.5,148.5C 200.238,144.901 199.738,141.234 200,137.5C 201.899,134.137 204.732,132.137 208.5,131.5 Z"/></g>
<g><path style="opacity:1" fill="#0c6d35" d="M 208.5,127.5 C 197.487,129.757 188.654,135.424 182,144.5C 176.553,153.38 177.553,161.38 185,168.5C 185.499,172.486 185.666,176.486 185.5,180.5C 170.825,185.278 155.825,188.112 140.5,189C 154.596,166.289 170.262,144.789 187.5,124.5C 194.472,117.193 201.472,109.86 208.5,102.5C 209.363,101.537 210.03,101.537 210.5,102.5C 209.03,110.749 208.363,119.082 208.5,127.5 Z"/></g>
<g><path style="opacity:1" fill="#eaf6e9" d="M 187.5,124.5 C 170.262,144.789 154.596,166.289 140.5,189C 155.825,188.112 170.825,185.278 185.5,180.5C 186.338,180.842 186.672,181.508 186.5,182.5C 170.818,189.004 154.485,192.837 137.5,194C 135.822,196.914 133.822,199.414 131.5,201.5C 130.127,201.657 128.793,201.49 127.5,201C 133.123,191.718 139.123,182.718 145.5,174C 140.633,160.934 138.467,147.434 139,133.5C 140.729,146.149 143.729,158.482 148,170.5C 159.909,154.091 173.076,138.757 187.5,124.5 Z"/></g>
<g><path style="opacity:1" fill="#0a6b32" d="M 192.5,173.5 C 200.804,173.278 203.137,176.778 199.5,184C 190.939,184.609 188.605,181.109 192.5,173.5 Z"/></g>
<g><path style="opacity:1" fill="#e4f5d6" d="M 209.5,157.5 C 210.66,169.326 210.826,181.326 210,193.5C 209.617,194.056 209.117,194.389 208.5,194.5C 208.976,186.174 209.309,177.84 209.5,169.5C 209.5,165.5 209.5,161.5 209.5,157.5 Z"/></g>
<g><path style="opacity:1" fill="#f2faf1" d="M 108.5,163.5 C 110.602,178.575 114.269,193.242 119.5,207.5C 122.807,206.949 126.14,206.616 129.5,206.5C 142.611,205.972 153.111,210.972 161,221.5C 162.579,224.994 164.413,228.327 166.5,231.5C 174.944,227.935 183.278,224.435 191.5,221C 184.107,226.365 176.107,230.698 167.5,234C 166.748,234.671 166.414,235.504 166.5,236.5C 164.534,235.745 164.2,234.579 165.5,233C 164.328,232.581 163.328,231.915 162.5,231C 160.807,230.516 159.473,231.016 158.5,232.5C 149.309,214.268 135.309,209.435 116.5,218C 105.856,226.254 101.69,237.087 104,250.5C 99.1627,257.504 94.8294,264.837 91,272.5C 90.5014,276.152 90.3347,279.818 90.5,283.5C 92.6208,283.675 94.6208,283.341 96.5,282.5C 96.4894,284.017 95.8228,285.184 94.5,286C 95.9156,287.915 95.5822,289.415 93.5,290.5C 93.4142,289.504 93.7476,288.671 94.5,288C 91.1177,287.176 87.7844,287.343 84.5,288.5C 83.0014,293.011 81.3348,297.344 79.5,301.5C 79.4332,299.599 79.7665,297.766 80.5,296C 79.8235,294.317 78.8235,294.15 77.5,295.5C 79.3052,288.586 81.8052,281.919 85,275.5C 85.4994,270.177 85.666,264.844 85.5,259.5C 86.8333,259.5 88.1667,259.5 89.5,259.5C 89.3398,261.199 89.5065,262.866 90,264.5C 90.2784,263.584 90.7784,262.918 91.5,262.5C 92.4511,261.081 92.7845,259.415 92.5,257.5C 96.9083,257.938 98.5749,255.938 97.5,251.5C 94.0753,233.02 100.409,219.02 116.5,209.5C 114.898,205.193 113.398,200.86 112,196.5C 104.106,198.449 95.9392,199.116 87.5,198.5C 87.5,206.5 87.5,214.5 87.5,222.5C 86.5,222.5 85.5,222.5 84.5,222.5C 84.5,213.167 84.5,203.833 84.5,194.5C 93.1667,194.5 101.833,194.5 110.5,194.5C 109.526,187.309 108.193,180.309 106.5,173.5C 106.334,167.491 106.501,161.491 107,155.5C 107.395,158.207 107.895,160.873 108.5,163.5 Z"/></g>
<g><path style="opacity:1" fill="#d8efc1" d="M 84.5,194.5 C 84.5,203.833 84.5,213.167 84.5,222.5C 85.5,222.5 86.5,222.5 87.5,222.5C 86.4324,223.434 85.099,223.768 83.5,223.5C 83.1729,213.652 83.5062,203.986 84.5,194.5 Z"/></g>
<g><path style="opacity:1" fill="#0c6c34" d="M 186.5,182.5 C 191.713,190.112 199.047,194.112 208.5,194.5C 206.831,212.18 202.497,229.18 195.5,245.5C 185.856,246.498 176.19,246.832 166.5,246.5C 166.5,243.167 166.5,239.833 166.5,236.5C 166.414,235.504 166.748,234.671 167.5,234C 176.107,230.698 184.107,226.365 191.5,221C 183.278,224.435 174.944,227.935 166.5,231.5C 164.413,228.327 162.579,224.994 161,221.5C 153.111,210.972 142.611,205.972 129.5,206.5C 130.441,204.95 131.107,203.284 131.5,201.5C 133.822,199.414 135.822,196.914 137.5,194C 154.485,192.837 170.818,189.004 186.5,182.5 Z"/></g>
<g><path style="opacity:1" fill="#edfbf6" d="M 148.5,194.5 C 157.5,194.5 166.5,194.5 175.5,194.5C 175.5,204.167 175.5,213.833 175.5,223.5C 174.167,223.5 172.833,223.5 171.5,223.5C 171.5,215.167 171.5,206.833 171.5,198.5C 163.833,198.5 156.167,198.5 148.5,198.5C 148.5,197.167 148.5,195.833 148.5,194.5 Z"/></g>
<g><path style="opacity:1" fill="#0c5d2c" d="M 158.5,232.5 C 162.087,251.385 154.754,263.552 136.5,269C 125.39,270.28 116.056,266.78 108.5,258.5C 102.392,265.383 98.392,273.383 96.5,282.5C 94.6208,283.341 92.6208,283.675 90.5,283.5C 90.3347,279.818 90.5014,276.152 91,272.5C 94.8294,264.837 99.1627,257.504 104,250.5C 101.69,237.087 105.856,226.254 116.5,218C 135.309,209.435 149.309,214.268 158.5,232.5 Z"/></g>
<g><path style="opacity:1" fill="#ecf7f1" d="M 150.5,234.5 C 149.883,234.611 149.383,234.944 149,235.5C 141.672,223.21 131.839,220.71 119.5,228C 117.833,230.333 116.167,232.667 114.5,235C 113.072,235.579 111.738,235.412 110.5,234.5C 117.884,219.427 129.218,215.593 144.5,223C 148.126,225.79 150.792,229.29 152.5,233.5C 152.043,234.298 151.376,234.631 150.5,234.5 Z"/></g>
<g><path style="opacity:1" fill="#6fb93d" d="M 77.5,172.5 C 77.3601,174.124 78.0267,175.29 79.5,176C 76.0071,180.99 76.5071,185.823 81,190.5C 81.6667,189.833 82.3333,189.167 83,188.5C 87.7256,190.539 87.5589,191.706 82.5,192C 81.3044,192.654 81.3044,193.154 82.5,193.5C 88.5371,192.103 94.5371,191.436 100.5,191.5C 101.624,189.631 102.457,187.631 103,185.5C 104.558,186.345 105.558,185.679 106,183.5C 106.498,180.183 106.665,176.85 106.5,173.5C 108.193,180.309 109.526,187.309 110.5,194.5C 101.833,194.5 93.1667,194.5 84.5,194.5C 83.5062,203.986 83.1729,213.652 83.5,223.5C 85.099,223.768 86.4324,223.434 87.5,222.5C 87.5,214.5 87.5,206.5 87.5,198.5C 95.9392,199.116 104.106,198.449 112,196.5C 113.398,200.86 114.898,205.193 116.5,209.5C 100.409,219.02 94.0753,233.02 97.5,251.5C 96.5207,252.765 95.5207,254.099 94.5,255.5C 84.1174,234.975 77.284,213.308 74,190.5C 73.654,208.074 76.654,225.074 83,241.5C 86.4057,248.305 89.2391,255.305 91.5,262.5C 90.7784,262.918 90.2784,263.584 90,264.5C 89.5065,262.866 89.3398,261.199 89.5,259.5C 88.1667,259.5 86.8333,259.5 85.5,259.5C 85.666,264.844 85.4994,270.177 85,275.5C 81.8052,281.919 79.3052,288.586 77.5,295.5C 76.8186,297.158 75.9853,298.825 75,300.5C 61.9421,281.784 55.4421,260.951 55.5,238C 55.4873,229.088 56.3207,220.255 58,211.5C 60.8035,203.422 63.8035,195.422 67,187.5C 70.0299,182.084 73.5299,177.084 77.5,172.5 Z"/></g>
<g><path style="opacity:1" fill="#eff9e3" d="M 97.5,251.5 C 98.5749,255.938 96.9083,257.938 92.5,257.5C 92.7845,259.415 92.4511,261.081 91.5,262.5C 89.2391,255.305 86.4057,248.305 83,241.5C 76.654,225.074 73.654,208.074 74,190.5C 77.284,213.308 84.1174,234.975 94.5,255.5C 95.5207,254.099 96.5207,252.765 97.5,251.5 Z"/></g>
<g><path style="opacity:1" fill="#106d35" d="M 150.5,234.5 C 150.5,234.833 150.5,235.167 150.5,235.5C 137.224,239.373 123.558,241.707 109.5,242.5C 109.279,239.721 109.612,237.054 110.5,234.5C 111.738,235.412 113.072,235.579 114.5,235C 116.167,232.667 117.833,230.333 119.5,228C 131.839,220.71 141.672,223.21 149,235.5C 149.383,234.944 149.883,234.611 150.5,234.5 Z"/></g>
<g><path style="opacity:1" fill="#e8f5ee" d="M 150.5,235.5 C 151.5,235.5 152.5,235.5 153.5,235.5C 153.843,237.483 153.176,238.817 151.5,239.5C 141.699,242.594 131.699,244.928 121.5,246.5C 117.5,246.5 113.5,246.5 109.5,246.5C 109.5,245.167 109.5,243.833 109.5,242.5C 123.558,241.707 137.224,239.373 150.5,235.5 Z"/></g>
<g><path style="opacity:1" fill="#75bb3d" d="M 420.5,241.5 C 427.225,241.204 428.891,243.871 425.5,249.5C 418.409,250.531 416.742,247.864 420.5,241.5 Z"/></g>
<g><path style="opacity:1" fill="#0c6f36" d="M 151.5,239.5 C 153.877,247.967 151.21,254.8 143.5,260C 128.974,266.714 117.974,263.047 110.5,249C 114.347,248.367 118.014,247.533 121.5,246.5C 131.699,244.928 141.699,242.594 151.5,239.5 Z"/></g>
<g><path style="opacity:1" fill="#a5c8b6" d="M 341.5,248.5 C 344.962,247.518 348.629,247.185 352.5,247.5C 352.5,251.167 352.5,254.833 352.5,258.5C 351.521,255.375 351.187,252.042 351.5,248.5C 348.167,248.5 344.833,248.5 341.5,248.5 Z"/></g>
<g><path style="opacity:1" fill="#095d2b" d="M 185.5,300.5 C 184.791,299.596 183.791,299.263 182.5,299.5C 181.514,303.97 181.181,308.637 181.5,313.5C 178.833,313.5 176.167,313.5 173.5,313.5C 173.83,296.658 173.497,279.992 172.5,263.5C 184.024,255.881 195.69,255.715 207.5,263C 215.313,273.676 215.48,284.51 208,295.5C 201.212,300.573 193.712,302.24 185.5,300.5 Z"/></g>
<g><path style="opacity:1" fill="#f4f9f6" d="M 187.5,266.5 C 201.317,266.433 206.15,273.1 202,286.5C 197.065,292.815 190.898,294.148 183.5,290.5C 182.167,283.167 182.167,275.833 183.5,268.5C 185.026,268.006 186.359,267.339 187.5,266.5 Z"/></g>
<g><path style="opacity:1" fill="#74bc3d" d="M 447.5,257.5 C 451.182,257.335 454.848,257.501 458.5,258C 461.524,258.916 464.191,260.416 466.5,262.5C 466.014,264.497 464.847,265.831 463,266.5C 456.928,263.942 450.928,263.942 445,266.5C 444.056,269.347 444.556,271.847 446.5,274C 453.008,275.876 459.341,278.21 465.5,281C 471.069,290.133 468.735,296.466 458.5,300C 453.167,300.667 447.833,300.667 442.5,300C 439.885,299.205 437.885,297.705 436.5,295.5C 436.58,293.67 437.413,292.337 439,291.5C 445.922,294.94 452.922,295.274 460,292.5C 462.225,288.837 461.392,286.004 457.5,284C 451.897,283.178 446.564,281.511 441.5,279C 437.695,274.909 436.528,270.076 438,264.5C 440.529,261.115 443.696,258.782 447.5,257.5 Z"/></g>
<g><path style="opacity:1" fill="#085e2c" d="M 328.5,270.5 C 328.5,280.167 328.5,289.833 328.5,299.5C 325.167,299.5 321.833,299.5 318.5,299.5C 318.666,290.161 318.5,280.827 318,271.5C 316.2,267.765 313.2,266.098 309,266.5C 306.287,266.411 303.787,267.078 301.5,268.5C 300.501,279.146 300.168,289.813 300.5,300.5C 297.167,300.5 293.833,300.5 290.5,300.5C 290.178,287.587 290.511,274.754 291.5,262C 300.144,257.632 309.144,256.632 318.5,259C 323.788,261.122 327.121,264.955 328.5,270.5 Z"/></g>
<g><path style="opacity:1" fill="#9bc0a9" d="M 362.5,258.5 C 363.477,261.287 363.81,264.287 363.5,267.5C 359.833,267.5 356.167,267.5 352.5,267.5C 352.5,274.5 352.5,281.5 352.5,288.5C 351.508,281.352 351.175,274.019 351.5,266.5C 355.167,266.5 358.833,266.5 362.5,266.5C 362.5,263.833 362.5,261.167 362.5,258.5 Z"/></g>
<g><path style="opacity:1" fill="#0c6c34" d="M 107.5,267.5 C 123.467,279.496 139.467,279.496 155.5,267.5C 157.527,268.693 159.027,270.36 160,272.5C 160.667,277.167 160.667,281.833 160,286.5C 140.239,300.253 118.406,307.919 94.5,309.5C 96.3445,302.455 98.3445,295.455 100.5,288.5C 104.107,287.511 107.774,287.177 111.5,287.5C 111.5,286.167 111.5,284.833 111.5,283.5C 108.5,283.5 105.5,283.5 102.5,283.5C 103.766,278.035 105.433,272.701 107.5,267.5 Z"/></g>
<g><path style="opacity:1" fill="#82ad92" d="M 269.5,271.5 C 270.434,272.568 270.768,273.901 270.5,275.5C 265.167,275.5 259.833,275.5 254.5,275.5C 259.305,274.513 264.305,274.179 269.5,274.5C 269.5,273.5 269.5,272.5 269.5,271.5 Z"/></g>
<g><path style="opacity:1" fill="#003b00" d="M 172.5,263.5 C 173.497,279.992 173.83,296.658 173.5,313.5C 176.167,313.5 178.833,313.5 181.5,313.5C 181.181,308.637 181.514,303.97 182.5,299.5C 182.5,304.5 182.5,309.5 182.5,314.5C 179.167,314.5 175.833,314.5 172.5,314.5C 172.5,297.5 172.5,280.5 172.5,263.5 Z"/></g>
<g><path style="opacity:1" fill="#cde8b6" d="M 419.5,258.5 C 419.5,272.167 419.5,285.833 419.5,299.5C 421.833,299.5 424.167,299.5 426.5,299.5C 424.052,300.473 421.385,300.806 418.5,300.5C 418.171,286.323 418.504,272.323 419.5,258.5 Z"/></g>
<g><path style="opacity:1" fill="#085927" d="M 221.5,241.5 C 224.833,241.5 228.167,241.5 231.5,241.5C 231.333,257.503 231.5,273.503 232,289.5C 233.754,291.25 235.921,291.917 238.5,291.5C 238.5,294.5 238.5,297.5 238.5,300.5C 235.15,300.665 231.817,300.498 228.5,300C 225.943,299.315 224.109,297.815 223,295.5C 221.554,277.556 221.054,259.556 221.5,241.5 Z"/></g>
<g><path style="opacity:1" fill="#075d2a" d="M 341.5,248.5 C 344.833,248.5 348.167,248.5 351.5,248.5C 351.187,252.042 351.521,255.375 352.5,258.5C 355.833,258.5 359.167,258.5 362.5,258.5C 362.5,261.167 362.5,263.833 362.5,266.5C 358.833,266.5 355.167,266.5 351.5,266.5C 351.175,274.019 351.508,281.352 352.5,288.5C 352.574,290.411 353.574,291.578 355.5,292C 357.899,292.711 360.232,292.544 362.5,291.5C 363.783,294.372 363.783,297.205 362.5,300C 351.842,303.424 345.008,299.924 342,289.5C 341.5,282.174 341.334,274.841 341.5,267.5C 339.167,267.5 336.833,267.5 334.5,267.5C 334.5,264.5 334.5,261.5 334.5,258.5C 336.833,258.5 339.167,258.5 341.5,258.5C 341.5,255.167 341.5,251.833 341.5,248.5 Z"/></g>
<g><path style="opacity:1" fill="#7fac92" d="M 328.5,270.5 C 329.494,280.319 329.827,290.319 329.5,300.5C 325.629,300.815 321.962,300.482 318.5,299.5C 321.833,299.5 325.167,299.5 328.5,299.5C 328.5,289.833 328.5,280.167 328.5,270.5 Z"/></g>
<g><path style="opacity:1" fill="#0e5e2d" d="M 254.5,275.5 C 259.833,275.5 265.167,275.5 270.5,275.5C 270.768,273.901 270.434,272.568 269.5,271.5C 269.084,269.248 267.751,267.748 265.5,267C 259.88,266.178 254.38,266.678 249,268.5C 248.055,268.095 247.388,267.428 247,266.5C 246.749,264.567 246.249,262.734 245.5,261C 255.193,256.476 264.86,256.476 274.5,261C 276.956,263.408 278.789,266.241 280,269.5C 280.5,278.494 280.666,287.494 280.5,296.5C 273.8,299.258 266.8,300.925 259.5,301.5C 248.45,301.615 242.95,296.281 243,285.5C 244.503,279.498 248.336,276.164 254.5,275.5 Z"/></g>
<g><path style="opacity:1" fill="#edf5f0" d="M 257.5,281.5 C 261.833,281.5 266.167,281.5 270.5,281.5C 271.765,291.242 267.432,295.076 257.5,293C 250.914,289.174 250.914,285.34 257.5,281.5 Z"/></g>
<g><path style="opacity:1" fill="#6fb739" d="M 419.5,258.5 C 421.833,258.5 424.167,258.5 426.5,258.5C 426.5,272.167 426.5,285.833 426.5,299.5C 424.167,299.5 421.833,299.5 419.5,299.5C 419.5,285.833 419.5,272.167 419.5,258.5 Z"/></g>
<g><path style="opacity:1" fill="#75ba40" d="M 399.5,240.5 C 402.167,240.5 404.833,240.5 407.5,240.5C 407.5,259.5 407.5,278.5 407.5,297.5C 400.082,300.283 392.416,301.45 384.5,301C 376.565,298.732 371.732,293.565 370,285.5C 368.173,263.828 378.007,254.828 399.5,258.5C 399.5,252.5 399.5,246.5 399.5,240.5 Z"/></g>
<g><path style="opacity:1" fill="#fcfef9" d="M 386.5,264.5 C 390.675,264.188 394.675,264.855 398.5,266.5C 399.498,275.475 399.832,284.475 399.5,293.5C 382.342,296.843 375.176,289.843 378,272.5C 380.098,268.897 382.932,266.23 386.5,264.5 Z"/></g>
<g><path style="opacity:1" fill="#0d6b32" d="M 93.5,290.5 C 85.5736,313.911 82.907,337.911 85.5,362.5C 84.8109,366.687 82.3109,369.02 78,369.5C 75.5941,369.297 73.5941,368.297 72,366.5C 70.1415,356.176 70.1415,345.843 72,335.5C 74.1895,324.077 76.6895,312.744 79.5,301.5C 81.3348,297.344 83.0014,293.011 84.5,288.5C 87.7844,287.343 91.1177,287.176 94.5,288C 93.7476,288.671 93.4142,289.504 93.5,290.5 Z"/></g>
<g><path style="opacity:1" fill="#aacaba" d="M 182.5,299.5 C 183.791,299.263 184.791,299.596 185.5,300.5C 183.862,304.913 182.862,309.579 182.5,314.5C 182.5,309.5 182.5,304.5 182.5,299.5 Z"/></g>
</svg>
