<svg width="56" height="56" viewBox="0 0 56 56" fill="none" xmlns="http://www.w3.org/2000/svg">
<g clip-path="url(#clip0_13731_17159)">
<path d="M55.9269 26.2316C55.0426 11.6421 42.8847 0 28.0005 0C13.1163 0 0.958429 11.6421 0.0742188 26.2316C0.0742188 26.8211 0.147903 27.4105 0.221587 28C0.811061 32.8632 2.65317 37.3579 5.45317 41.1158C10.5374 48.0421 18.7163 52.5368 28.0005 52.5368C15.0321 52.5368 4.42159 42.4421 3.53738 29.7684C3.46369 29.1789 3.46369 28.5895 3.46369 28C3.46369 27.4105 3.46369 26.8211 3.53738 26.2316C4.42159 13.5579 15.0321 3.46316 28.0005 3.46316C37.2847 3.46316 45.4637 7.95789 50.5479 14.8842C53.3479 18.6421 55.19 23.1368 55.7795 28C55.8532 28.5895 55.9269 29.1789 55.9269 29.6947C55.9269 29.1053 56.0005 28.5158 56.0005 27.9263C56.0005 27.4105 56.0005 26.8211 55.9269 26.2316Z" fill="#89D329"/>
<path d="M0.0736842 29.7662C0.957895 44.3557 13.1158 55.9978 28 55.9978C42.8842 55.9978 55.0421 44.3557 55.9263 29.7662C55.9263 29.1767 55.8526 28.5873 55.7789 27.9978C55.1895 23.1346 53.3474 18.6399 50.5474 14.882C45.4632 7.95567 37.2842 3.46094 28 3.46094C40.9684 3.46094 51.5789 13.5557 52.4632 26.2294C52.5368 26.8188 52.5368 27.4083 52.5368 27.9978C52.5368 28.5873 52.5368 29.1767 52.4632 29.7662C51.5789 42.5136 40.9684 52.5346 28 52.5346C18.7158 52.5346 10.5368 48.0399 5.45263 41.1136C2.65263 37.3557 0.810526 32.8609 0.221053 27.9978C0.147368 27.4083 0.0736842 26.8188 0.0736842 26.303C0.0736842 26.8925 0 27.482 0 28.0715C0 28.5873 5.27031e-09 29.1767 0.0736842 29.7662Z" fill="#00BCFF"/>
<path d="M24.5371 5.38281V13.1197H29.9161C31.2424 13.1197 32.274 12.0881 32.274 10.7618C32.274 10.0986 31.9792 9.50911 31.5371 9.067C31.8318 8.69858 32.0528 8.18279 32.1265 7.667C32.1265 6.41437 31.095 5.38281 29.8423 5.38281H24.5371ZM26.3055 7.00386H29.5476C29.916 7.00386 30.2108 7.29858 30.2108 7.667C30.2108 8.03542 29.916 8.33014 29.5476 8.33014H26.3055V7.00386ZM26.3055 9.95119H29.6213C30.0634 9.95119 30.3582 10.2459 30.3582 10.688C30.3582 11.1302 30.0634 11.4249 29.6213 11.4249H26.3055V9.95119Z" fill="#10384F"/>
<path d="M27.1168 14.5938L23.2852 22.3306H25.2747L25.8641 21.0043H30.2115L30.801 22.3306H32.7904L28.8852 14.5938H27.1168ZM28.001 16.5833L29.3273 19.3833H26.6747L28.001 16.5833Z" fill="#10384F"/>
<path d="M30.653 24.0234H32.8636L28.9583 29.034V31.7603H27.1162V29.034L23.2109 24.0234H25.4215L28.0741 27.5603L30.653 24.0234Z" fill="#10384F"/>
<path d="M43.3262 24.0234V31.7603H45.1683V28.813H46.5683L48.7788 31.7603H50.9893L48.7051 28.7393C49.663 28.4445 50.3999 27.5603 50.3999 26.4551C50.3999 25.1287 49.3683 24.0234 48.042 24.0234H43.3262ZM45.242 25.6445H47.8947C48.2631 25.6445 48.6315 26.0129 48.6315 26.3813C48.6315 26.7498 48.3368 27.1182 47.8947 27.1182H45.242V25.6445Z" fill="#10384F"/>
<path d="M5.67383 24.0234V31.7603H11.0528C12.3791 31.7603 13.4107 30.7287 13.4107 29.4024C13.4107 28.7392 13.1159 28.1497 12.6738 27.7076C12.9686 27.3392 13.1896 26.8234 13.2633 26.3076C13.2633 25.055 12.2317 24.0234 10.9791 24.0234H5.67383ZM7.4422 25.6445H10.6843C11.0527 25.6445 11.3475 25.9392 11.3475 26.3076C11.3475 26.676 11.0527 26.9708 10.6843 26.9708H7.4422V25.6445ZM7.4422 28.5918H10.758C11.2001 28.5918 11.4949 28.8866 11.4949 29.3287C11.4949 29.7708 11.2001 30.0655 10.758 30.0655H7.4422V28.5918Z" fill="#10384F"/>
<path d="M18.3473 24.0234L14.5156 31.7603H16.5052L17.0946 30.434H21.442L22.0314 31.7603H24.0209L20.1156 24.0234H18.3473ZM19.2314 26.013L20.5577 28.813H17.9052L19.2314 26.013Z" fill="#10384F"/>
<path d="M40.8945 24.0234V25.6865H35.7366V26.988H40.7472V28.6511H35.7366V30.0972H40.8945V31.7603H33.8945V24.0234H40.8945Z" fill="#10384F"/>
<path d="M24.4629 43.0312V50.7681H26.305V47.8208H27.705L29.9156 50.7681H32.126L29.8418 47.7471C30.7997 47.4523 31.5366 46.5681 31.5366 45.4629C31.5366 44.1366 30.505 43.0312 29.1787 43.0312H24.4629ZM26.3787 44.6523H29.0314C29.3998 44.6523 29.7682 45.0207 29.7682 45.3892C29.7682 45.7576 29.4735 46.126 29.0314 46.126H26.3787V44.6523Z" fill="#10384F"/>
<path d="M31.5371 33.4375V35.1006H26.3792V36.4021H31.3897V38.0652H26.3792V39.5113H31.5371V41.1744H24.5371V33.4375H31.5371Z" fill="#10384F"/>
</g>
<defs>
<clipPath id="clip0_13731_17159">
<rect width="56" height="56" fill="white"/>
</clipPath>
</defs>
</svg>
