<svg width="56" height="56" viewBox="0 0 56 56" fill="none" xmlns="http://www.w3.org/2000/svg">
<path d="M38.1677 2H4.26054C3.01211 2 2.00006 3.01205 2.00006 4.26048V40.4281C2.00006 41.6765 3.01211 42.6886 4.26054 42.6886H38.1677C39.4161 42.6886 40.4282 41.6765 40.4282 40.4281V4.26048C40.4282 3.01205 39.4161 2 38.1677 2Z" fill="#E9EDEC"/>
<path fill-rule="evenodd" clip-rule="evenodd" d="M4.26054 3.25C3.99254 3.25 3.73552 3.35646 3.54602 3.54596C3.35652 3.73546 3.25006 3.99248 3.25006 4.26048V40.4281C3.25006 40.6961 3.35652 40.9531 3.54602 41.1426C3.73552 41.3321 3.99254 41.4386 4.26054 41.4386H25.7351C26.4254 41.4386 26.9851 41.9982 26.9851 42.6886C26.9851 43.3789 26.4254 43.9386 25.7351 43.9386H4.26054C3.3295 43.9386 2.4366 43.5687 1.77826 42.9104C1.11991 42.252 0.750061 41.3591 0.750061 40.4281V4.26048C0.750061 3.32944 1.11991 2.43654 1.77826 1.77819C2.4366 1.11985 3.3295 0.75 4.26054 0.75H38.1677C39.0987 0.75 39.9916 1.11985 40.65 1.77819C41.3083 2.43654 41.6782 3.32944 41.6782 4.26048V26.7861C41.6782 27.4765 41.1185 28.0361 40.4282 28.0361C39.7378 28.0361 39.1782 27.4765 39.1782 26.7861V4.26048C39.1782 3.99248 39.0717 3.73546 38.8822 3.54596C38.6927 3.35646 38.4357 3.25 38.1677 3.25H4.26054Z" fill="#2E796D"/>
<path d="M6.521 7.65111C6.521 7.35135 6.64007 7.06387 6.85204 6.85191C7.064 6.63995 7.35148 6.52087 7.65123 6.52087H34.777C35.0767 6.52087 35.3642 6.63995 35.5762 6.85191C35.7881 7.06387 35.9072 7.35135 35.9072 7.65111V16.693C35.9072 16.9928 35.7881 17.2803 35.5762 17.4922C35.3642 17.7042 35.0767 17.8233 34.777 17.8233H7.65123C7.35148 17.8233 7.064 17.7042 6.85204 17.4922C6.64007 17.2803 6.521 16.9928 6.521 16.693V7.65111Z" fill="#2E796D" fill-opacity="0.25"/>
<path d="M7.65123 22.3442C7.35148 22.3442 7.064 22.4633 6.85204 22.6753C6.64007 22.8872 6.521 23.1747 6.521 23.4745V37.0373C6.521 37.3371 6.64007 37.6246 6.85204 37.8365C7.064 38.0485 7.35148 38.1676 7.65123 38.1676H21.9759C22.1508 38.1676 22.3233 38.1271 22.4799 38.0491C22.6364 37.9712 22.7728 37.858 22.8782 37.7184C22.9835 37.5788 23.0551 37.4167 23.0872 37.2448C23.1193 37.0729 23.1111 36.8959 23.0632 36.7277L19.1887 23.1648C19.1214 22.9284 18.9788 22.7204 18.7826 22.5723C18.5864 22.4242 18.3472 22.3442 18.1014 22.3442H7.65123Z" fill="#2E796D" fill-opacity="0.25"/>
<path d="M35.9073 38.1676V23.4745C35.9073 23.1747 35.7882 22.8872 35.5762 22.6753C35.3643 22.4633 35.0768 22.3442 34.777 22.3442H26.1036C25.9287 22.3442 25.7562 22.3847 25.5996 22.4627C25.443 22.5406 25.3067 22.6538 25.2013 22.7934C25.0959 22.933 25.0243 23.0951 24.9922 23.267C24.9601 23.4389 24.9684 23.616 25.0163 23.7842L29.1258 38.1676H35.9073Z" fill="#2E796D" fill-opacity="0.25"/>
<path fill-rule="evenodd" clip-rule="evenodd" d="M26.1039 21.0942C26.104 21.0942 26.1038 21.0942 26.1039 21.0942L34.777 21.0942C35.4083 21.0942 36.0137 21.345 36.4601 21.7914C36.9065 22.2378 37.1572 22.8432 37.1572 23.4745V31.3861C37.1572 32.0765 36.5976 32.6361 35.9072 32.6361C35.2169 32.6361 34.6572 32.0765 34.6572 31.3861V23.5942H26.262L30.0687 36.9176H30.1611C30.8514 36.9176 31.4111 37.4772 31.4111 38.1676C31.4111 38.8579 30.8514 39.4176 30.1611 39.4176H29.1258C28.5677 39.4176 28.0772 39.0476 27.9239 38.511L23.8143 24.1276C23.7134 23.7733 23.6958 23.3996 23.7634 23.0376C23.831 22.6755 23.9818 22.3341 24.2037 22.0401C24.4257 21.7462 24.7128 21.5078 25.0425 21.3437C25.3721 21.1796 25.7357 21.0942 26.1039 21.0942Z" fill="#2E796D"/>
<path d="M43.7731 30.3091L29.5775 44.5043L36.3593 51.2864L50.555 37.0913L43.7731 30.3091Z" fill="white"/>
<path fill-rule="evenodd" clip-rule="evenodd" d="M28.6936 45.3882C28.2054 44.9 28.2054 44.1086 28.6936 43.6204L42.8892 29.4253C43.3774 28.9371 44.1688 28.9371 44.657 29.4253L51.4389 36.2074C51.927 36.6956 51.927 37.4871 51.4388 37.9752L37.2432 52.1703C36.755 52.6585 35.9636 52.6585 35.4754 52.1703L28.6936 45.3882ZM31.3452 44.5043L36.3594 49.5187L48.7872 37.0913L43.7731 32.0769L31.3452 44.5043Z" fill="#2E796D"/>
<path d="M43.773 30.3091L29.5774 44.5043L36.3593 51.2864L50.5549 37.0913L43.773 30.3091Z" fill="#2E796D" fill-opacity="0.5"/>
<path fill-rule="evenodd" clip-rule="evenodd" d="M28.6935 45.3882C28.2054 44.9 28.2054 44.1086 28.6935 43.6204L42.8892 29.4253C43.3773 28.9371 44.1688 28.9371 44.6569 29.4253L51.4388 36.2074C51.927 36.6956 51.9269 37.4871 51.4388 37.9752L37.2432 52.1703C36.755 52.6585 35.9635 52.6585 35.4754 52.1703L28.6935 45.3882ZM31.3452 44.5043L36.3593 49.5187L48.7871 37.0913L43.773 32.0769L31.3452 44.5043Z" fill="#2E796D"/>
<path d="M29.5778 44.506L36.3592 51.2874L26.8652 54L29.5778 44.506Z" fill="#2E796D" fill-opacity="0.5"/>
<path fill-rule="evenodd" clip-rule="evenodd" d="M29.2643 43.296C29.693 43.1849 30.1485 43.3089 30.4617 43.6221L37.2431 50.4036C37.5563 50.7167 37.6804 51.1723 37.5693 51.601C37.4582 52.0297 37.1285 52.3677 36.7027 52.4893L27.2087 55.2019C26.7722 55.3266 26.3024 55.2049 25.9814 54.8839C25.6604 54.5629 25.5386 54.0931 25.6634 53.6566L28.3759 44.1626C28.4976 43.7367 28.8355 43.4071 29.2643 43.296ZM30.1961 46.8921L28.6853 52.18L33.9732 50.6691L30.1961 46.8921Z" fill="#2E796D"/>
<path d="M52.5895 35.0571L50.5551 37.0916L43.7737 30.3101L45.8081 28.2757C46.4005 27.6756 47.142 27.2441 47.9565 27.0255C48.7709 26.807 49.6289 26.8094 50.4421 27.0325C51.2549 27.2509 51.9959 27.6791 52.5911 28.2742C53.1862 28.8693 53.6144 29.6104 53.8328 30.4232C54.0429 31.2372 54.0388 32.0917 53.8209 32.9037C53.6031 33.7157 53.1789 34.4576 52.5895 35.0571Z" fill="#2E796D" fill-opacity="0.5"/>
<path fill-rule="evenodd" clip-rule="evenodd" d="M50.1115 28.2379C49.5124 28.0736 48.8804 28.0719 48.2804 28.2329C47.6804 28.3938 47.1341 28.7117 46.6977 29.1538L46.692 29.1596L46.692 29.1596L45.5414 30.3101L50.5551 35.3238L51.7015 34.1774C52.1379 33.7322 52.4521 33.182 52.6136 32.5798C52.775 31.9781 52.7786 31.3449 52.624 30.7415C52.4619 30.1427 52.1459 29.5968 51.7072 29.1581C51.267 28.7179 50.7189 28.4012 50.1177 28.2396L50.1115 28.238L50.1115 28.2379ZM50.7696 25.8261C49.7431 25.5452 48.6604 25.5425 47.6326 25.8182C46.605 26.0939 45.6694 26.638 44.9215 27.3945L42.8898 29.4263C42.4016 29.9144 42.4016 30.7059 42.8898 31.194L49.6712 37.9755C49.9056 38.2099 50.2236 38.3416 50.5551 38.3416C50.8866 38.3416 51.2046 38.2099 51.439 37.9755L53.4734 35.941L53.4735 35.9411L53.481 35.9334C54.2215 35.18 54.7545 34.2479 55.0282 33.2277C55.3019 32.2074 55.3071 31.1337 55.0432 30.1108L55.0432 30.1108L55.04 30.0988C54.7647 29.0744 54.225 28.1404 53.4749 27.3903C52.7256 26.641 51.7927 26.1016 50.7696 25.8261Z" fill="#2E796D"/>
<path fill-rule="evenodd" clip-rule="evenodd" d="M7.771 7.77087V16.5733H34.6572V7.77087H7.771ZM5.96815 5.96803C6.41453 5.52165 7.01996 5.27087 7.65123 5.27087H34.777C35.4082 5.27087 36.0137 5.52165 36.46 5.96803C36.9064 6.41441 37.1572 7.01984 37.1572 7.65111V16.693C37.1572 17.3243 36.9064 17.9297 36.46 18.3761C36.0137 18.8225 35.4082 19.0733 34.777 19.0733H7.65123C7.01996 19.0733 6.41453 18.8225 5.96815 18.3761C5.52177 17.9297 5.271 17.3243 5.271 16.693V7.65111C5.271 7.01983 5.52177 6.41441 5.96815 5.96803Z" fill="#2E796D"/>
<path fill-rule="evenodd" clip-rule="evenodd" d="M5.96815 21.7914C6.41453 21.345 7.01996 21.0942 7.65123 21.0942L18.1011 21.0942C18.1012 21.0942 18.101 21.0942 18.1011 21.0942C18.6186 21.0942 19.1224 21.2628 19.5355 21.5746C19.9487 21.8864 20.2489 22.3243 20.3908 22.8221C20.3908 22.8221 20.3908 22.822 20.3908 22.8221L24.2651 36.3843C24.366 36.7385 24.3836 37.1122 24.316 37.4742C24.2484 37.8363 24.0977 38.1777 23.8757 38.4717C23.6538 38.7656 23.3666 39.004 23.0369 39.1682C22.7073 39.3322 22.3441 39.4176 21.9759 39.4176C21.9758 39.4176 21.976 39.4176 21.9759 39.4176H7.65123C7.01996 39.4176 6.41453 39.1668 5.96815 38.7204C5.52177 38.274 5.271 37.6686 5.271 37.0373V23.4745C5.271 22.8432 5.52177 22.2378 5.96815 21.7914ZM7.771 23.5942V36.9176H21.8174L18.0114 23.5942H7.771ZM18.1018 23.5942C18.1019 23.5942 18.1016 23.5942 18.1018 23.5942V23.5942ZM21.9759 36.9176C21.9758 36.9176 21.976 36.9176 21.9759 36.9176V36.9176Z" fill="#2E796D"/>
</svg>
