<svg width="56" height="56" viewBox="0 0 56 56" fill="none" xmlns="http://www.w3.org/2000/svg">
<g clip-path="url(#clip0_1890_2287)">
<path d="M17.5 26.8333C22.6546 26.8333 26.8333 22.6546 26.8333 17.5C26.8333 12.3453 22.6546 8.16663 17.5 8.16663C12.3453 8.16663 8.16663 12.3453 8.16663 17.5C8.16663 22.6546 12.3453 26.8333 17.5 26.8333Z" fill="#E9EDEC"/>
<path d="M10.1196 23.1536C10.9122 24.1983 11.9168 25.0635 13.0675 25.6924C14.2181 26.3214 15.4888 26.6998 16.7961 26.8029C18.1033 26.906 19.4176 26.7315 20.6526 26.2907C21.8877 25.8499 23.0155 25.1529 23.9621 24.2454C24.9087 23.3379 25.6526 22.2405 26.145 21.0251C26.6375 19.8098 26.8673 18.504 26.8193 17.1936C26.7714 15.8831 26.4469 14.5976 25.867 13.4215C25.2871 12.2454 24.465 11.2052 23.4546 10.3693C21.3299 11.2859 19.4925 12.76 18.137 14.6355C16.7815 16.511 15.9583 18.7182 15.7546 21.0233C13.7204 21.2201 11.7753 21.9554 10.1196 23.1536Z" fill="#2E796D" fill-opacity="0.5"/>
<path fill-rule="evenodd" clip-rule="evenodd" d="M4.30602 4.30256C4.79449 3.81472 5.58594 3.81523 6.07378 4.3037L7.88445 6.1167C8.37229 6.60517 8.37178 7.39662 7.88331 7.88446C7.39484 8.3723 6.60339 8.3718 6.11555 7.88333L4.30488 6.07033C3.81704 5.58186 3.81755 4.7904 4.30602 4.30256Z" fill="#2E796D"/>
<path fill-rule="evenodd" clip-rule="evenodd" d="M30.694 4.30256C31.1825 4.7904 31.183 5.58186 30.6951 6.07033L28.8845 7.88333C28.3966 8.3718 27.6052 8.3723 27.1167 7.88446C26.6282 7.39662 26.6277 6.60517 27.1155 6.1167L28.9262 4.3037C29.4141 3.81523 30.2055 3.81472 30.694 4.30256Z" fill="#2E796D"/>
<path fill-rule="evenodd" clip-rule="evenodd" d="M22.6147 11.2327C21.1151 10.0013 19.2225 9.35042 17.2826 9.39902C15.3428 9.44763 13.4851 10.1924 12.049 11.4974C10.6129 12.8024 9.69414 14.5804 9.46054 16.5067C9.22695 18.4331 9.69411 20.3792 10.7767 21.9896C11.1618 22.5625 11.0096 23.3392 10.4367 23.7243C9.86377 24.1095 9.08709 23.9573 8.70194 23.3843C7.28452 21.2759 6.67288 18.7279 6.97872 16.2058C7.28457 13.6837 8.48749 11.3557 10.3678 9.64715C12.248 7.9386 14.6802 6.96344 17.22 6.89981C19.7598 6.83617 22.2377 7.6883 24.2012 9.30055C24.7348 9.73865 24.8121 10.5263 24.374 11.0599C23.9359 11.5934 23.1483 11.6708 22.6147 11.2327Z" fill="#2E796D"/>
<path fill-rule="evenodd" clip-rule="evenodd" d="M-0.083374 15.1666C-0.083374 14.4763 0.47627 13.9166 1.16663 13.9166H3.49996C4.19032 13.9166 4.74996 14.4763 4.74996 15.1666C4.74996 15.857 4.19032 16.4166 3.49996 16.4166H1.16663C0.47627 16.4166 -0.083374 15.857 -0.083374 15.1666Z" fill="#2E796D"/>
<path fill-rule="evenodd" clip-rule="evenodd" d="M17.5 -0.083374C18.1904 -0.083374 18.75 0.47627 18.75 1.16663V3.49996C18.75 4.19032 18.1904 4.74996 17.5 4.74996C16.8096 4.74996 16.25 4.19032 16.25 3.49996V1.16663C16.25 0.47627 16.8096 -0.083374 17.5 -0.083374Z" fill="#2E796D"/>
<path d="M50.7522 30.786C51.2424 29.6537 51.4247 28.4119 51.2804 27.1865C51.1362 25.9611 50.6706 24.7956 49.9308 23.8081C49.1911 22.8206 48.2035 22.0462 47.068 21.5633C45.9326 21.0804 44.6897 20.9062 43.4652 21.0583C42.4132 18.3657 40.483 16.1071 37.9871 14.6484C35.4912 13.1898 32.576 12.6166 29.7137 13.0216C26.8513 13.4267 24.2096 14.7863 22.2164 16.8801C20.2233 18.974 18.9955 21.6795 18.7319 24.5583C15.7541 24.8619 13.0059 26.2951 11.0525 28.563C9.09915 30.831 8.08911 33.7612 8.23018 36.7511C8.37124 39.741 9.65268 42.5631 11.8109 44.6371C13.9692 46.711 16.8401 47.8791 19.8332 47.901H45.4999C47.4987 47.8912 49.442 47.243 51.0464 46.051C52.6509 44.859 53.8325 43.1855 54.4189 41.2747C55.0053 39.3638 54.9658 37.3156 54.3062 35.4288C53.6466 33.542 52.4014 31.9153 50.7522 30.786Z" fill="#E9EDEC"/>
<path d="M45.4999 40.2197H19.8333C17.4126 40.2082 15.0556 39.4428 13.0902 38.0297C11.1247 36.6167 9.6484 34.6263 8.86659 32.3353C8.23151 34.0929 8.0298 35.9777 8.27857 37.8299C8.52734 39.6821 9.21925 41.4469 10.2956 42.9746C11.3719 44.5023 12.8009 45.7478 14.4613 46.6055C16.1217 47.4631 17.9645 47.9075 19.8333 47.901H45.4999C47.0634 47.9016 48.602 47.5095 49.9744 46.7606C51.3468 46.0117 52.5091 44.93 53.3546 43.6149C54.2001 42.2997 54.7017 40.7933 54.8133 39.2338C54.9248 37.6743 54.6429 36.1118 53.9933 34.6897C53.2606 36.3316 52.0693 37.7269 50.5626 38.7079C49.0559 39.6889 47.2979 40.2139 45.4999 40.2197Z" fill="#2E796D" fill-opacity="0.5"/>
<path fill-rule="evenodd" clip-rule="evenodd" d="M29.5385 11.784C32.6797 11.3395 35.8789 11.9685 38.6178 13.5692C41.0904 15.0143 43.0572 17.1747 44.2657 19.7551C45.393 19.7466 46.5136 19.9691 47.5573 20.413C48.8955 20.9821 50.0594 21.8948 50.9313 23.0587C51.8031 24.2225 52.3519 25.5962 52.5219 27.0404C52.6527 28.1521 52.5556 29.2752 52.2404 30.3421C53.2492 31.1756 54.0968 32.1909 54.7379 33.3382C55.5389 34.7718 55.9953 36.3721 56.071 38.0125C56.1468 39.653 55.8397 41.2885 55.1741 42.7898C54.5086 44.2911 53.5028 45.6169 52.2363 46.6623C51.7039 47.1018 50.9161 47.0265 50.4766 46.4941C50.0371 45.9617 50.1124 45.1738 50.6448 44.7343C51.6121 43.9359 52.3803 42.9232 52.8887 41.7766C53.397 40.63 53.6315 39.3807 53.5737 38.1278C53.5159 36.8749 53.1673 35.6526 52.5555 34.5576C51.9436 33.4627 51.0854 32.5252 50.0487 31.8192C49.553 31.4817 49.3669 30.8397 49.6051 30.2894C50.0078 29.3593 50.1575 28.3392 50.039 27.3327C49.9205 26.3261 49.5381 25.3687 48.9304 24.5575C48.3228 23.7464 47.5115 23.1102 46.5788 22.7136C45.6461 22.3169 44.6252 22.1738 43.6194 22.2988C43.052 22.3693 42.509 22.0458 42.301 21.5132C41.3515 19.0828 39.6092 17.0442 37.3564 15.7277C35.1036 14.4111 32.4724 13.8937 29.8888 14.2593C27.3053 14.6249 24.9209 15.8521 23.1219 17.742C21.3228 19.6319 20.2146 22.0739 19.9767 24.6723C19.922 25.2705 19.4494 25.7452 18.8514 25.8026C16.6937 26.0098 14.6544 26.8849 13.0176 28.306C11.3808 29.7272 10.2282 31.6235 9.72029 33.7308C9.21239 35.8381 9.37453 38.0513 10.1841 40.0621C10.9937 42.0729 12.4104 43.781 14.2368 44.9484C14.8185 45.3202 14.9886 46.0932 14.6168 46.6749C14.245 47.2565 13.4721 47.4267 12.8904 47.0549C10.6256 45.6073 8.86893 43.4892 7.86503 40.9958C6.86114 38.5025 6.66009 35.7581 7.28989 33.145C7.91969 30.532 9.34897 28.1805 11.3786 26.4183C13.1538 24.877 15.3109 23.8536 17.6141 23.4494C18.0706 20.6649 19.355 18.0732 21.3111 16.0183C23.4984 13.7205 26.3974 12.2285 29.5385 11.784Z" fill="#2E796D"/>
<path fill-rule="evenodd" clip-rule="evenodd" d="M12.1666 53.6666C12.1666 52.9763 12.7263 52.4166 13.4166 52.4166C13.9029 52.4166 14.3692 52.6098 14.713 52.9536C15.0568 53.2974 15.25 53.7637 15.25 54.25C15.25 54.9403 14.6903 55.5 14 55.5C13.5042 55.5 13.0758 55.2113 12.8737 54.7929C12.4553 54.5908 12.1666 54.1624 12.1666 53.6666Z" fill="#2E796D"/>
<path fill-rule="evenodd" clip-rule="evenodd" d="M13.9595 54.7929C14.3779 54.5908 14.6666 54.1624 14.6666 53.6666C14.6666 52.9763 14.1069 52.4166 13.4166 52.4166C12.9304 52.4166 12.464 52.6098 12.1202 52.9536C11.7764 53.2974 11.5833 53.7637 11.5833 54.25C11.5833 54.9403 12.1429 55.5 12.8333 55.5C13.3291 55.5 13.7574 55.2113 13.9595 54.7929Z" fill="#2E796D"/>
<path fill-rule="evenodd" clip-rule="evenodd" d="M13.9595 53.7071C13.7574 53.2887 13.3291 53 12.8333 53C12.1429 53 11.5833 53.5596 11.5833 54.25C11.5833 54.7362 11.7764 55.2025 12.1202 55.5464C12.464 55.8902 12.9304 56.0833 13.4166 56.0833C14.1069 56.0833 14.6666 55.5237 14.6666 54.8333C14.6666 54.3375 14.3779 53.9092 13.9595 53.7071Z" fill="#2E796D"/>
<path fill-rule="evenodd" clip-rule="evenodd" d="M14 53C14.6903 53 15.25 53.5596 15.25 54.25C15.25 54.7362 15.0568 55.2025 14.713 55.5464C14.3692 55.8902 13.9029 56.0833 13.4166 56.0833C12.7263 56.0833 12.1666 55.5237 12.1666 54.8333C12.1666 54.3375 12.4553 53.9092 12.8737 53.7071C13.0758 53.2887 13.5042 53 14 53Z" fill="#2E796D"/>
<path fill-rule="evenodd" clip-rule="evenodd" d="M25.9672 41.6994C26.4553 42.1875 26.4553 42.979 25.9672 43.4671L17.8005 51.6338C17.3124 52.122 16.5209 52.122 16.0327 51.6338C15.5446 51.1457 15.5446 50.3542 16.0327 49.866L24.1994 41.6994C24.6876 41.2112 25.479 41.2112 25.9672 41.6994Z" fill="#2E796D"/>
<path fill-rule="evenodd" clip-rule="evenodd" d="M35.5 53.6666C35.5 52.9763 36.0596 52.4166 36.75 52.4166C37.2362 52.4166 37.7025 52.6098 38.0464 52.9536C38.3902 53.2974 38.5833 53.7637 38.5833 54.25C38.5833 54.9403 38.0237 55.5 37.3333 55.5C36.8375 55.5 36.4092 55.2113 36.2071 54.7929C35.7887 54.5908 35.5 54.1624 35.5 53.6666Z" fill="#2E796D"/>
<path fill-rule="evenodd" clip-rule="evenodd" d="M37.2929 54.7929C37.7113 54.5908 38 54.1624 38 53.6666C38 52.9763 37.4403 52.4166 36.75 52.4166C36.2637 52.4166 35.7974 52.6098 35.4536 52.9536C35.1098 53.2974 34.9166 53.7637 34.9166 54.25C34.9166 54.9403 35.4763 55.5 36.1666 55.5C36.6624 55.5 37.0908 55.2113 37.2929 54.7929Z" fill="#2E796D"/>
<path fill-rule="evenodd" clip-rule="evenodd" d="M37.2929 53.7071C37.0908 53.2887 36.6624 53 36.1666 53C35.4763 53 34.9166 53.5596 34.9166 54.25C34.9166 54.7362 35.1098 55.2025 35.4536 55.5464C35.7974 55.8902 36.2637 56.0833 36.75 56.0833C37.4403 56.0833 38 55.5237 38 54.8333C38 54.3375 37.7113 53.9092 37.2929 53.7071Z" fill="#2E796D"/>
<path fill-rule="evenodd" clip-rule="evenodd" d="M37.3333 53C38.0237 53 38.5833 53.5596 38.5833 54.25C38.5833 54.7362 38.3902 55.2025 38.0464 55.5464C37.7025 55.8902 37.2362 56.0833 36.75 56.0833C36.0596 56.0833 35.5 55.5237 35.5 54.8333C35.5 54.3375 35.7887 53.9092 36.2071 53.7071C36.4092 53.2887 36.8375 53 37.3333 53Z" fill="#2E796D"/>
<path fill-rule="evenodd" clip-rule="evenodd" d="M49.3006 41.6994C49.7887 42.1875 49.7887 42.979 49.3006 43.4671L41.1339 51.6338C40.6457 52.122 39.8543 52.122 39.3661 51.6338C38.878 51.1457 38.878 50.3542 39.3661 49.866L47.5328 41.6994C48.0209 41.2112 48.8124 41.2112 49.3006 41.6994Z" fill="#2E796D"/>
<path fill-rule="evenodd" clip-rule="evenodd" d="M26.1666 51.3333C26.1666 50.6429 26.7263 50.0833 27.4166 50.0833C27.9029 50.0833 28.3692 50.2764 28.713 50.6202C29.0568 50.964 29.25 51.4304 29.25 51.9166C29.25 52.6069 28.6903 53.1666 28 53.1666C27.5042 53.1666 27.0758 52.8779 26.8737 52.4595C26.4553 52.2574 26.1666 51.8291 26.1666 51.3333Z" fill="#2E796D"/>
<path fill-rule="evenodd" clip-rule="evenodd" d="M27.9595 52.4595C28.3779 52.2574 28.6666 51.8291 28.6666 51.3333C28.6666 50.6429 28.1069 50.0833 27.4166 50.0833C26.9304 50.0833 26.464 50.2764 26.1202 50.6202C25.7764 50.964 25.5833 51.4304 25.5833 51.9166C25.5833 52.6069 26.1429 53.1666 26.8333 53.1666C27.3291 53.1666 27.7574 52.8779 27.9595 52.4595Z" fill="#2E796D"/>
<path fill-rule="evenodd" clip-rule="evenodd" d="M27.9595 51.3737C27.7574 50.9553 27.3291 50.6666 26.8333 50.6666C26.1429 50.6666 25.5833 51.2263 25.5833 51.9166C25.5833 52.4029 25.7764 52.8692 26.1202 53.213C26.464 53.5568 26.9304 53.75 27.4166 53.75C28.1069 53.75 28.6666 53.1903 28.6666 52.5C28.6666 52.0042 28.3779 51.5758 27.9595 51.3737Z" fill="#2E796D"/>
<path fill-rule="evenodd" clip-rule="evenodd" d="M28 50.6666C28.6903 50.6666 29.25 51.2263 29.25 51.9166C29.25 52.4029 29.0568 52.8692 28.713 53.213C28.3692 53.5568 27.9029 53.75 27.4166 53.75C26.7263 53.75 26.1666 53.1903 26.1666 52.5C26.1666 52.0042 26.4553 51.5758 26.8737 51.3737C27.0758 50.9553 27.5042 50.6666 28 50.6666Z" fill="#2E796D"/>
<path fill-rule="evenodd" clip-rule="evenodd" d="M37.0505 42.2827C37.5387 42.7709 37.5387 43.5624 37.0505 44.0505L31.8005 49.3005C31.3124 49.7887 30.5209 49.7887 30.0327 49.3005C29.5446 48.8124 29.5446 48.0209 30.0327 47.5327L35.2827 42.2827C35.7709 41.7946 36.5623 41.7946 37.0505 42.2827Z" fill="#2E796D"/>
</g>
<defs>
<clipPath id="clip0_1890_2287">
<rect width="56" height="56" fill="white"/>
</clipPath>
</defs>
</svg>
