<svg width="60" height="56" viewBox="0 0 60 56" fill="none" xmlns="http://www.w3.org/2000/svg">
<path opacity="0.5" d="M17.3227 43.5807H18.5628L44.331 40.7901L44.8822 40.48L7.91177 28.9006C7.69129 28.9006 7.26871 29.004 7.08498 29.0557L7.08496 29.8308L7.26341 30.2479L8.22799 30.558L9.74377 30.868L15.5313 42.8055L16.4959 43.5807H17.3227Z" fill="#2E796D" fill-opacity="0.5"/>
<path opacity="0.5" d="M26.0567 17.9895C25.726 17.9895 21.5094 14.5854 19.4424 12.8833L26.3654 12.7428L34.1868 17.5253C31.6145 17.68 26.3874 17.9895 26.0567 17.9895Z" fill="#2E796D"/>
<path d="M17.3767 43.5205H18.6169L44.3851 40.7353L44.9363 40.4258L55.6845 27.4283L58.0271 26.9641V25.7262L39.7 16.1328L32.3967 16.4422L26.058 12.4192L19.1681 12.7287L18.8925 16.9064C13.6562 17.1128 3.12844 17.5254 2.90796 17.5254C2.68749 17.5254 2.26491 17.6285 2.08118 17.6801V18.4538L2.90796 20.62L5.52612 26.0357L7.31749 30.2135L8.28208 30.5229L9.79785 30.8324L15.5854 42.7468L16.5499 43.5205H17.3767Z" fill="#2E796D" fill-opacity="0.25"/>
<path fill-rule="evenodd" clip-rule="evenodd" d="M25.8838 10.924C26.2089 10.8979 26.5336 10.9784 26.8088 11.1534L32.7498 14.9314L39.5823 14.6413C39.8463 14.6301 40.1086 14.6888 40.3426 14.8116L58.6697 24.4236C59.1636 24.6826 59.473 25.1943 59.473 25.752V26.9922C59.473 27.708 58.9672 28.3241 58.2651 28.4635L56.447 28.8245L46.0391 41.4348C45.9215 41.5773 45.7786 41.6968 45.6176 41.7873L45.0665 42.0974C44.8896 42.1969 44.6943 42.2595 44.4925 42.2814L18.7243 45.0719C18.6707 45.0777 18.6168 45.0806 18.5628 45.0806H16.4959C16.1541 45.0806 15.8226 44.964 15.5562 44.7499L14.5917 43.9747C14.4185 43.8356 14.2784 43.6597 14.1815 43.4599L8.71727 32.1891L7.92739 32.0275C7.87386 32.0166 7.82098 32.0027 7.76896 31.986L6.80438 31.6759C6.39087 31.543 6.05528 31.2374 5.88439 30.838L4.10636 26.6833L1.50293 21.2877C1.48433 21.2492 1.46738 21.2099 1.45214 21.1699L0.625357 18.9994C0.560397 18.8289 0.5271 18.6479 0.5271 18.4654V17.6903C0.5271 17.0183 0.97405 16.4283 1.62096 16.2463C1.74216 16.2122 1.92808 16.1648 2.12292 16.1245C2.28518 16.0909 2.57703 16.0353 2.85389 16.0353C2.85049 16.0353 2.87016 16.0346 2.91584 16.033C2.98751 16.0305 3.1232 16.0258 3.33427 16.0181C3.65232 16.0064 4.10121 15.9895 4.6509 15.9685C5.75009 15.9266 7.24988 15.8684 8.90679 15.8038C11.6908 15.6953 14.9174 15.5685 17.4304 15.4695L17.6173 12.6307C17.6692 11.8422 18.3239 11.2293 19.114 11.2293H22.0854L25.8838 10.924ZM25.6031 13.7054C25.6573 13.7011 25.7114 13.7145 25.7573 13.7437L31.6719 17.5048C31.8876 17.642 32.1402 17.7097 32.3956 17.6989L39.2959 17.4059C39.3399 17.4041 39.3836 17.4139 39.4226 17.4343L55.3519 25.7888C55.4429 25.8365 55.4954 25.935 55.4843 26.0372C55.4732 26.1394 55.4007 26.2243 55.3016 26.2513C55.0533 26.3191 54.8311 26.462 54.6664 26.6616L44.096 39.4688C44.0765 39.4925 44.0526 39.5125 44.0258 39.5276L43.9863 39.5498C43.9568 39.5664 43.9243 39.5768 43.8906 39.5805L18.5088 42.3292C18.4998 42.3302 18.4909 42.3306 18.4819 42.3306H17.0239C16.9669 42.3306 16.9117 42.3112 16.8673 42.2755L16.5773 42.0424C16.5484 42.0192 16.5251 41.9899 16.5089 41.9566L10.8686 30.3227C10.6988 29.9725 10.3756 29.7214 9.99429 29.6434L8.55886 29.3497C8.54994 29.3479 8.54112 29.3456 8.53246 29.3428L8.29691 29.2671C8.22799 29.245 8.17206 29.194 8.14358 29.1275L6.62123 25.5702C6.61382 25.5529 6.60603 25.5358 6.59784 25.5188L4.0076 20.1505C4.0045 20.1441 4.00168 20.1376 3.99914 20.1309L3.60266 19.0901C3.57397 19.0148 3.58334 18.9303 3.62783 18.8631C3.67231 18.7959 3.74645 18.7542 3.82698 18.7512C6.60877 18.6477 14.5891 18.3338 18.8877 18.1641C19.5268 18.1389 20.0437 17.6354 20.0857 16.9972L20.2691 14.2128C20.2777 14.0814 20.3868 13.9793 20.5185 13.9793H22.1456C22.179 13.9793 22.2124 13.9779 22.2457 13.9752L25.6031 13.7054Z" fill="#2E796D"/>
<path d="M31.8141 37.4667L33.0068 37.3735C33.0068 37.3735 32.5463 39.7648 32.5048 39.7648C32.4633 39.7648 31.4355 39.8942 31.4355 39.8942L31.8141 37.4667Z" fill="#2E796D"/>
<path fill-rule="evenodd" clip-rule="evenodd" d="M26.3051 17.2354C26.8573 17.2297 27.3096 17.6728 27.3153 18.225L27.3653 23.1073C27.371 23.6595 26.9279 24.1118 26.3756 24.1175C25.8234 24.1231 25.3711 23.68 25.3654 23.1278L25.3154 18.2456C25.3097 17.6933 25.7528 17.241 26.3051 17.2354Z" fill="#2E796D"/>
<path fill-rule="evenodd" clip-rule="evenodd" d="M33.6887 17.2354C34.241 17.2354 34.6887 17.6831 34.6887 18.2354V21.897C34.6887 22.4493 34.241 22.897 33.6887 22.897C33.1364 22.897 32.6887 22.4493 32.6887 21.897V18.2354C32.6887 17.6831 33.1364 17.2354 33.6887 17.2354Z" fill="#2E796D"/>
<path fill-rule="evenodd" clip-rule="evenodd" d="M18.5138 12.323C18.8454 11.8813 19.4722 11.7921 19.9139 12.1237L26.3593 16.9631L34.1508 16.6809C34.7028 16.6609 35.1664 17.0921 35.1864 17.644C35.2064 18.196 34.7751 18.6596 34.2232 18.6796L26.3924 18.9632C25.9501 18.9811 25.5228 18.8405 25.1773 18.5766L18.7131 13.7231C18.2714 13.3915 18.1822 12.7646 18.5138 12.323Z" fill="#2E796D"/>
<path fill-rule="evenodd" clip-rule="evenodd" d="M58.4852 26.6853C58.5371 27.2351 58.1335 27.723 57.5837 27.7749L57.4896 26.7794L57.3956 25.7838C57.9454 25.7319 58.4332 26.1355 58.4852 26.6853ZM34.9028 29.8968C23.4681 30.9562 11.6542 32.0312 10.5156 32.0512C9.96341 32.0608 9.50793 31.621 9.49826 31.0688C9.4886 30.5166 9.92842 30.0611 10.4806 30.0515C11.5198 30.0333 23.2016 28.9723 34.7183 27.9053C40.4556 27.3738 46.1249 26.8434 50.36 26.4459C52.4775 26.2471 54.2365 26.0816 55.466 25.9658L57.3956 25.7838C57.3959 25.7838 57.3956 25.7838 57.4896 26.7794C57.5837 27.7749 57.584 27.7749 57.5837 27.7749L55.6536 27.957C54.4238 28.0728 52.6647 28.2384 50.5469 28.4371C46.3113 28.8347 40.6411 29.3651 34.9028 29.8968Z" fill="#2E796D"/>
<path fill-rule="evenodd" clip-rule="evenodd" d="M52.3834 23.0358C52.4286 23.5862 52.0191 24.0691 51.4687 24.1144L6.91827 27.776C6.36784 27.8213 5.88496 27.4118 5.83972 26.8613C5.79448 26.3109 6.20401 25.828 6.75444 25.7828L51.3048 22.1211C51.8553 22.0759 52.3382 22.4854 52.3834 23.0358Z" fill="#2E796D"/>
<path fill-rule="evenodd" clip-rule="evenodd" d="M34.6852 22.4243C34.7311 22.9747 34.3221 23.4581 33.7717 23.5039L26.4483 24.1142C25.898 24.1601 25.4146 23.7511 25.3687 23.2007C25.3229 22.6503 25.7319 22.167 26.2822 22.1211L33.6056 21.5108C34.156 21.465 34.6393 21.874 34.6852 22.4243Z" fill="#2E796D"/>
<path fill-rule="evenodd" clip-rule="evenodd" d="M11.1186 22.3177C11.5605 21.9864 12.1873 22.0759 12.5186 22.5177L18.0111 29.8411C18.3425 30.2829 18.253 30.9097 17.8111 31.2411C17.3693 31.5725 16.7425 31.4829 16.4111 31.0411L10.9186 23.7177C10.5873 23.2759 10.6768 22.6491 11.1186 22.3177Z" fill="#2E796D"/>
<path fill-rule="evenodd" clip-rule="evenodd" d="M16.5422 21.7642C16.9527 21.3947 17.585 21.428 17.9544 21.8385L23.4469 27.9413C23.8164 28.3518 23.7831 28.9841 23.3726 29.3535C22.9621 29.723 22.3298 29.6897 21.9603 29.2792L16.4678 23.1764C16.0984 22.7659 16.1317 22.1336 16.5422 21.7642Z" fill="#2E796D"/>
<path fill-rule="evenodd" clip-rule="evenodd" d="M18.3488 16.3459C18.7182 15.9354 19.3505 15.9021 19.761 16.2716L31.9666 27.2566C32.3771 27.6261 32.4104 28.2584 32.0409 28.6689C31.6715 29.0794 31.0392 29.1127 30.6287 28.7432L18.4231 17.7582C18.0126 17.3887 17.9793 16.7564 18.3488 16.3459Z" fill="#2E796D"/>
<path fill-rule="evenodd" clip-rule="evenodd" d="M32.8695 21.9339C33.1862 21.4815 33.8097 21.3715 34.2621 21.6882L40.3649 25.9601C40.8174 26.2768 40.9274 26.9004 40.6107 27.3528C40.294 27.8053 39.6705 27.9153 39.218 27.5986L33.1152 23.3266C32.6628 23.0099 32.5527 22.3864 32.8695 21.9339Z" fill="#2E796D"/>
<path fill-rule="evenodd" clip-rule="evenodd" d="M37.7134 20.7724C37.9975 20.2988 38.6118 20.1453 39.0854 20.4294L48.2396 25.9219C48.7132 26.2061 48.8667 26.8203 48.5826 27.2939C48.2984 27.7675 47.6842 27.921 47.2106 27.6369L38.0564 22.1444C37.5828 21.8602 37.4292 21.246 37.7134 20.7724Z" fill="#2E796D"/>
<path fill-rule="evenodd" clip-rule="evenodd" d="M24.922 21.8306C24.9587 22.3817 24.5418 22.8582 23.9907 22.8949L5.68234 24.1155C5.13128 24.1522 4.65477 23.7353 4.61804 23.1842C4.5813 22.6331 4.99824 22.1566 5.5493 22.1199L23.8577 20.8993C24.4087 20.8626 24.8853 21.2796 24.922 21.8306Z" fill="#2E796D"/>
<path fill-rule="evenodd" clip-rule="evenodd" d="M46.893 20.6266C46.9206 21.1782 46.4958 21.6477 45.9442 21.6753L33.7386 22.2856C33.187 22.3131 32.7175 21.8883 32.6899 21.3368C32.6624 20.7852 33.0871 20.3156 33.6387 20.2881L45.8443 19.6778C46.3959 19.6502 46.8654 20.075 46.893 20.6266Z" fill="#2E796D"/>
</svg>
