<svg width="403" height="82" viewBox="0 0 403 82" fill="none" xmlns="http://www.w3.org/2000/svg">
<path d="M75.5938 0H6.40625C2.86818 0 0 2.86818 0 6.40625V75.5938C0 79.1318 2.86818 82 6.40625 82H75.5938C79.1318 82 82 79.1318 82 75.5938V6.40625C82 2.86818 79.1318 0 75.5938 0Z" fill="#234D43"/>
<path d="M12.8111 56.6304L12.8112 67.4022C12.8112 68.3957 13.625 69.2009 14.6289 69.2009L24.6758 69.2008V72.7979L14.6289 72.798C11.6172 72.798 9.17578 70.3823 9.17578 67.4022V56.6304H12.8111ZM72.7957 56.6304L72.7958 67.4022C72.7958 70.3823 70.3544 72.798 67.3427 72.798L56.5901 72.7979V69.2008L67.3427 69.2009C68.3465 69.2009 69.1605 68.3957 69.1605 67.4022L69.1603 56.6304H72.7957ZM24.6758 9.84766V13.4447L14.6289 13.4448C13.625 13.4448 12.8112 14.2501 12.8112 15.2434L12.8111 25.0519H9.17578V15.2434C9.17578 12.2634 11.6172 9.84766 14.6289 9.84766H24.6758ZM67.3427 9.84766C70.3544 9.84766 72.7958 12.2634 72.7958 15.2434L72.7957 25.0519H69.1603L69.1605 15.2434C69.1605 14.2501 68.3465 13.4448 67.3427 13.4448L56.5901 13.4447V9.84766H67.3427Z" fill="white"/>
<path fill-rule="evenodd" clip-rule="evenodd" d="M24.7557 43.4127C22.2473 40.6905 20.9081 37.2661 20.7215 33.7446L24.7557 43.4127ZM20.7215 33.7446C24.6123 33.9206 28.3802 35.5441 31.185 38.5875C33.6934 41.3097 35.0328 44.7343 35.2193 48.2557C31.3282 48.0797 27.5605 46.4562 24.7557 43.4127L20.7215 33.7446ZM18.9004 30.2629C24.3338 29.9498 29.8133 31.9378 33.7571 36.2172V36.2174C37.3324 40.0973 38.9574 45.1142 38.7162 50.0747C38.6728 50.9666 37.9644 51.6827 37.0728 51.7355C31.6285 52.0583 26.1354 50.0709 22.1836 45.783V45.7829C18.6083 41.9029 16.9835 36.8859 17.2245 31.9253C17.2687 31.0166 18.0006 30.2988 18.9004 30.2629Z" fill="white"/>
<path fill-rule="evenodd" clip-rule="evenodd" d="M42.1672 32.4916C47.2041 27.3046 54.1991 24.9257 61.1666 25.2983C62.0679 25.3465 62.7846 26.073 62.8205 26.975L62.8476 27.655C62.848 27.6646 62.8484 27.6743 62.8485 27.6839C62.9859 33.5795 60.8916 39.4387 56.4817 43.9801C53.1089 47.4534 48.8525 49.6706 44.3167 50.6419C43.3722 50.8442 42.4427 50.2425 42.2404 49.2981C42.0381 48.3536 42.6398 47.4241 43.5843 47.2218C47.491 46.3851 51.1144 44.4867 53.9723 41.5435C57.4503 37.9617 59.2245 33.4199 59.3501 28.7616C53.8559 28.8573 48.5559 30.9333 44.6764 34.9284C40.7968 38.9238 39.0362 44.1157 39.3214 49.3319C39.3232 49.3636 39.324 49.3954 39.324 49.4273V60.8814C39.324 61.8473 38.5411 62.6303 37.5752 62.6303C36.6093 62.6303 35.8263 61.8473 35.8263 60.8814V49.4742C35.5041 43.3497 37.5853 37.2103 42.1672 32.4916Z" fill="white"/>
<path d="M109.588 23.372V60.5H117.232V34.448H117.336L126.436 60.5H132.728L141.828 34.188H141.932V60.5H149.576V23.372H138.084L129.868 48.904H129.764L121.08 23.372H109.588ZM155.672 41.884C155.776 40.1507 156.209 38.712 156.972 37.568C157.734 36.424 158.705 35.5053 159.884 34.812C161.062 34.1187 162.38 33.6333 163.836 33.356C165.326 33.044 166.817 32.888 168.308 32.888C169.66 32.888 171.029 32.992 172.416 33.2C173.802 33.3733 175.068 33.7373 176.212 34.292C177.356 34.8467 178.292 35.6267 179.02 36.632C179.748 37.6027 180.112 38.9027 180.112 40.532V54.52C180.112 55.7333 180.181 56.8947 180.32 58.004C180.458 59.1133 180.701 59.9453 181.048 60.5H173.56C173.421 60.084 173.3 59.668 173.196 59.252C173.126 58.8013 173.074 58.3507 173.04 57.9C171.861 59.1133 170.474 59.9627 168.88 60.448C167.285 60.9333 165.656 61.176 163.992 61.176C162.709 61.176 161.513 61.02 160.404 60.708C159.294 60.396 158.324 59.9107 157.492 59.252C156.66 58.5933 156.001 57.7613 155.516 56.756C155.065 55.7507 154.84 54.5547 154.84 53.168C154.84 51.6427 155.1 50.3947 155.62 49.424C156.174 48.4187 156.868 47.6213 157.7 47.032C158.566 46.4427 159.537 46.0093 160.612 45.732C161.721 45.42 162.83 45.1773 163.94 45.004C165.049 44.8307 166.141 44.692 167.216 44.588C168.29 44.484 169.244 44.328 170.076 44.12C170.908 43.912 171.566 43.6173 172.052 43.236C172.537 42.82 172.762 42.2307 172.728 41.468C172.728 40.6707 172.589 40.0467 172.312 39.596C172.069 39.1107 171.722 38.7467 171.272 38.504C170.856 38.2267 170.353 38.0533 169.764 37.984C169.209 37.88 168.602 37.828 167.944 37.828C166.488 37.828 165.344 38.14 164.512 38.764C163.68 39.388 163.194 40.428 163.056 41.884H155.672ZM172.728 47.344C172.416 47.6213 172.017 47.8467 171.532 48.02C171.081 48.1587 170.578 48.28 170.024 48.384C169.504 48.488 168.949 48.5747 168.36 48.644C167.77 48.7133 167.181 48.8 166.592 48.904C166.037 49.008 165.482 49.1467 164.928 49.32C164.408 49.4933 163.94 49.736 163.524 50.048C163.142 50.3253 162.83 50.6893 162.588 51.14C162.345 51.5907 162.224 52.1627 162.224 52.856C162.224 53.5147 162.345 54.0693 162.588 54.52C162.83 54.9707 163.16 55.3347 163.576 55.612C163.992 55.8547 164.477 56.028 165.032 56.132C165.586 56.236 166.158 56.288 166.748 56.288C168.204 56.288 169.33 56.0453 170.128 55.56C170.925 55.0747 171.514 54.5027 171.896 53.844C172.277 53.1507 172.502 52.4573 172.572 51.764C172.676 51.0707 172.728 50.516 172.728 50.1V47.344ZM198.375 54.156C197.231 54.156 196.278 53.9133 195.515 53.428C194.752 52.9427 194.128 52.3187 193.643 51.556C193.192 50.7933 192.863 49.944 192.655 49.008C192.482 48.0373 192.395 47.0667 192.395 46.096C192.395 45.0907 192.499 44.1373 192.707 43.236C192.95 42.3 193.314 41.4853 193.799 40.792C194.319 40.064 194.943 39.492 195.671 39.076C196.434 38.66 197.335 38.452 198.375 38.452C199.588 38.452 200.594 38.6773 201.391 39.128C202.188 39.5787 202.83 40.1853 203.315 40.948C203.8 41.7107 204.147 42.5947 204.355 43.6C204.563 44.5707 204.667 45.6107 204.667 46.72C204.667 47.6907 204.528 48.6267 204.251 49.528C204.008 50.3947 203.627 51.1747 203.107 51.868C202.587 52.5613 201.928 53.116 201.131 53.532C200.334 53.948 199.415 54.156 198.375 54.156ZM211.687 58.784V33.616H204.667V37.204H204.563C203.662 35.644 202.535 34.5347 201.183 33.876C199.866 33.2173 198.323 32.888 196.555 32.888C194.683 32.888 193.019 33.252 191.563 33.98C190.142 34.708 188.946 35.696 187.975 36.944C187.004 38.1573 186.259 39.5787 185.739 41.208C185.254 42.8027 185.011 44.4667 185.011 46.2C185.011 48.0373 185.219 49.788 185.635 51.452C186.086 53.0813 186.779 54.52 187.715 55.768C188.651 56.9813 189.847 57.952 191.303 58.68C192.759 59.3733 194.492 59.72 196.503 59.72C198.132 59.72 199.675 59.3907 201.131 58.732C202.622 58.0387 203.766 56.9813 204.563 55.56H204.667V59.096C204.702 61.0027 204.234 62.58 203.263 63.828C202.327 65.076 200.819 65.7 198.739 65.7C197.422 65.7 196.26 65.4227 195.255 64.868C194.25 64.348 193.574 63.3947 193.227 62.008H185.895C185.999 63.5333 186.415 64.8333 187.143 65.908C187.906 67.0173 188.842 67.9187 189.951 68.612C191.095 69.3053 192.343 69.808 193.695 70.12C195.082 70.4667 196.434 70.64 197.751 70.64C200.836 70.64 203.298 70.224 205.135 69.392C206.972 68.56 208.376 67.5373 209.347 66.324C210.318 65.1453 210.942 63.8627 211.219 62.476C211.531 61.0893 211.687 59.8587 211.687 58.784ZM225.224 29.456V23.372H217.84V29.456H225.224ZM217.84 33.616V60.5H225.224V33.616H217.84ZM249.342 43.08H256.57C256.466 41.3467 256.05 39.856 255.322 38.608C254.594 37.3253 253.641 36.268 252.462 35.436C251.318 34.5693 250.001 33.928 248.51 33.512C247.054 33.096 245.529 32.888 243.934 32.888C241.75 32.888 239.809 33.252 238.11 33.98C236.412 34.708 234.973 35.7307 233.794 37.048C232.616 38.3307 231.714 39.8733 231.09 41.676C230.501 43.444 230.206 45.368 230.206 47.448C230.206 49.4587 230.536 51.3133 231.194 53.012C231.853 54.676 232.772 56.1147 233.95 57.328C235.129 58.5413 236.55 59.4947 238.214 60.188C239.913 60.8467 241.768 61.176 243.778 61.176C247.349 61.176 250.278 60.24 252.566 58.368C254.854 56.496 256.241 53.7747 256.726 50.204H249.602C249.36 51.868 248.753 53.2027 247.782 54.208C246.846 55.1787 245.494 55.664 243.726 55.664C242.582 55.664 241.612 55.404 240.814 54.884C240.017 54.364 239.376 53.7053 238.89 52.908C238.44 52.076 238.11 51.1573 237.902 50.152C237.694 49.1467 237.59 48.1587 237.59 47.188C237.59 46.1827 237.694 45.1773 237.902 44.172C238.11 43.132 238.457 42.196 238.942 41.364C239.462 40.4973 240.121 39.804 240.918 39.284C241.716 38.7293 242.704 38.452 243.882 38.452C247.037 38.452 248.857 39.9947 249.342 43.08ZM267.242 48.176H259.338C259.303 50.464 259.719 52.44 260.586 54.104C261.453 55.768 262.614 57.1373 264.07 58.212C265.561 59.2867 267.259 60.0667 269.166 60.552C271.107 61.072 273.101 61.332 275.146 61.332C277.677 61.332 279.895 61.0373 281.802 60.448C283.743 59.8587 285.355 59.044 286.638 58.004C287.955 56.9293 288.943 55.664 289.602 54.208C290.261 52.752 290.59 51.1747 290.59 49.476C290.59 47.396 290.139 45.6973 289.238 44.38C288.371 43.028 287.331 41.9533 286.118 41.156C284.905 40.3587 283.674 39.7867 282.426 39.44C281.213 39.0587 280.259 38.7987 279.566 38.66C277.243 38.0707 275.354 37.5853 273.898 37.204C272.477 36.8227 271.35 36.4413 270.518 36.06C269.721 35.6787 269.183 35.2627 268.906 34.812C268.629 34.3613 268.49 33.772 268.49 33.044C268.49 32.2467 268.663 31.588 269.01 31.068C269.357 30.548 269.79 30.1147 270.31 29.768C270.865 29.4213 271.471 29.1787 272.13 29.04C272.789 28.9013 273.447 28.832 274.106 28.832C275.111 28.832 276.03 28.9187 276.862 29.092C277.729 29.2653 278.491 29.56 279.15 29.976C279.809 30.392 280.329 30.964 280.71 31.692C281.126 32.42 281.369 33.3387 281.438 34.448H289.342C289.342 32.2987 288.926 30.4787 288.094 28.988C287.297 27.4627 286.205 26.2147 284.818 25.244C283.431 24.2733 281.837 23.58 280.034 23.164C278.266 22.7133 276.411 22.488 274.47 22.488C272.806 22.488 271.142 22.7133 269.478 23.164C267.814 23.6147 266.323 24.308 265.006 25.244C263.689 26.18 262.614 27.3587 261.782 28.78C260.985 30.1667 260.586 31.8133 260.586 33.72C260.586 35.4187 260.898 36.8747 261.522 38.088C262.181 39.2667 263.03 40.2547 264.07 41.052C265.11 41.8493 266.289 42.508 267.606 43.028C268.923 43.5133 270.275 43.9293 271.662 44.276C273.014 44.6573 274.349 45.004 275.666 45.316C276.983 45.628 278.162 45.992 279.202 46.408C280.242 46.824 281.074 47.344 281.698 47.968C282.357 48.592 282.686 49.4067 282.686 50.412C282.686 51.348 282.443 52.128 281.958 52.752C281.473 53.3413 280.866 53.8093 280.138 54.156C279.41 54.5027 278.63 54.7453 277.798 54.884C276.966 54.988 276.186 55.04 275.458 55.04C274.383 55.04 273.343 54.9187 272.338 54.676C271.333 54.3987 270.449 54 269.686 53.48C268.958 52.9253 268.369 52.2147 267.918 51.348C267.467 50.4813 267.242 49.424 267.242 48.176ZM312.971 43.08H320.199C320.095 41.3467 319.679 39.856 318.951 38.608C318.223 37.3253 317.27 36.268 316.091 35.436C314.947 34.5693 313.63 33.928 312.139 33.512C310.683 33.096 309.158 32.888 307.563 32.888C305.379 32.888 303.438 33.252 301.739 33.98C300.041 34.708 298.602 35.7307 297.423 37.048C296.245 38.3307 295.343 39.8733 294.719 41.676C294.13 43.444 293.835 45.368 293.835 47.448C293.835 49.4587 294.165 51.3133 294.823 53.012C295.482 54.676 296.401 56.1147 297.579 57.328C298.758 58.5413 300.179 59.4947 301.843 60.188C303.542 60.8467 305.397 61.176 307.407 61.176C310.978 61.176 313.907 60.24 316.195 58.368C318.483 56.496 319.87 53.7747 320.355 50.204H313.231C312.989 51.868 312.382 53.2027 311.411 54.208C310.475 55.1787 309.123 55.664 307.355 55.664C306.211 55.664 305.241 55.404 304.443 54.884C303.646 54.364 303.005 53.7053 302.519 52.908C302.069 52.076 301.739 51.1573 301.531 50.152C301.323 49.1467 301.219 48.1587 301.219 47.188C301.219 46.1827 301.323 45.1773 301.531 44.172C301.739 43.132 302.086 42.196 302.571 41.364C303.091 40.4973 303.75 39.804 304.547 39.284C305.345 38.7293 306.333 38.452 307.511 38.452C310.666 38.452 312.486 39.9947 312.971 43.08ZM331.079 47.084C331.079 46.0093 331.183 44.952 331.391 43.912C331.599 42.872 331.945 41.9533 332.431 41.156C332.951 40.3587 333.627 39.7173 334.459 39.232C335.291 38.712 336.331 38.452 337.579 38.452C338.827 38.452 339.867 38.712 340.699 39.232C341.565 39.7173 342.241 40.3587 342.727 41.156C343.247 41.9533 343.611 42.872 343.819 43.912C344.027 44.952 344.131 46.0093 344.131 47.084C344.131 48.1587 344.027 49.216 343.819 50.256C343.611 51.2613 343.247 52.18 342.727 53.012C342.241 53.8093 341.565 54.4507 340.699 54.936C339.867 55.4213 338.827 55.664 337.579 55.664C336.331 55.664 335.291 55.4213 334.459 54.936C333.627 54.4507 332.951 53.8093 332.431 53.012C331.945 52.18 331.599 51.2613 331.391 50.256C331.183 49.216 331.079 48.1587 331.079 47.084ZM323.695 47.084C323.695 49.2333 324.024 51.1747 324.683 52.908C325.341 54.6413 326.277 56.132 327.491 57.38C328.704 58.5933 330.16 59.5293 331.859 60.188C333.557 60.8467 335.464 61.176 337.579 61.176C339.693 61.176 341.6 60.8467 343.299 60.188C345.032 59.5293 346.505 58.5933 347.719 57.38C348.932 56.132 349.868 54.6413 350.527 52.908C351.185 51.1747 351.515 49.2333 351.515 47.084C351.515 44.9347 351.185 42.9933 350.527 41.26C349.868 39.492 348.932 38.0013 347.719 36.788C346.505 35.54 345.032 34.5867 343.299 33.928C341.6 33.2347 339.693 32.888 337.579 32.888C335.464 32.888 333.557 33.2347 331.859 33.928C330.16 34.5867 328.704 35.54 327.491 36.788C326.277 38.0013 325.341 39.492 324.683 41.26C324.024 42.9933 323.695 44.9347 323.695 47.084ZM381.536 60.5V33.616H374.152V47.708C374.152 50.4467 373.701 52.4227 372.8 53.636C371.898 54.8147 370.442 55.404 368.432 55.404C366.664 55.404 365.433 54.8667 364.74 53.792C364.046 52.6827 363.7 51.0187 363.7 48.8V33.616H356.316V50.152C356.316 51.816 356.454 53.3413 356.732 54.728C357.044 56.08 357.564 57.2413 358.292 58.212C359.02 59.148 360.008 59.876 361.256 60.396C362.538 60.916 364.168 61.176 366.144 61.176C367.704 61.176 369.229 60.8293 370.72 60.136C372.21 59.4427 373.424 58.316 374.36 56.756H374.516V60.5H381.536ZM396.5 33.616V25.556H389.116V33.616H384.644V38.556H389.116V54.416C389.116 55.768 389.341 56.86 389.792 57.692C390.243 58.524 390.849 59.1653 391.612 59.616C392.409 60.0667 393.311 60.3613 394.316 60.5C395.356 60.6733 396.448 60.76 397.592 60.76C398.32 60.76 399.065 60.7427 399.828 60.708C400.591 60.6733 401.284 60.604 401.908 60.5V54.78C401.561 54.8493 401.197 54.9013 400.816 54.936C400.435 54.9707 400.036 54.988 399.62 54.988C398.372 54.988 397.54 54.78 397.124 54.364C396.708 53.948 396.5 53.116 396.5 51.868V38.556H401.908V33.616H396.5Z" fill="#234D43"/>
</svg>
