<svg width="56" height="56" viewBox="0 0 56 56" fill="none" xmlns="http://www.w3.org/2000/svg">
<path d="M15.077 34.505C15.077 43.6588 20.0363 51.0794 26.1539 51.0794V21.9307C26.1539 19.7215 24.2634 17.8801 22.3282 18.9457C18.0958 21.2764 15.077 27.3632 15.077 34.505Z" fill="#2E796D" fill-opacity="0.5"/>
<path d="M39.9999 34.505C39.9999 43.6588 35.0406 51.0794 28.923 51.0794V21.9307C28.923 19.7215 30.8135 17.8801 32.7487 18.9457C36.9811 21.2764 39.9999 27.3632 39.9999 34.505Z" fill="#2E796D" fill-opacity="0.5"/>
<path fill-rule="evenodd" clip-rule="evenodd" d="M34.4542 18.4184C34.5118 18.0761 34.5418 17.7246 34.5418 17.3663C34.5418 13.8242 31.6113 10.9528 27.9964 10.9528C24.3814 10.9528 21.4509 13.8242 21.4509 17.3663C21.4509 17.7258 21.4811 18.0784 21.5391 18.4218C17.5791 21.5095 14.908 27.3487 14.908 34.0436C14.908 43.9608 20.769 52.0003 27.9989 52.0003C35.2287 52.0003 41.0897 43.9608 41.0897 34.0436C41.0897 27.3462 38.4167 21.5052 34.4542 18.4184Z" fill="#2E796D" fill-opacity="0.25"/>
<path fill-rule="evenodd" clip-rule="evenodd" d="M31.6793 12.0633C33.4073 13.2178 34.5418 15.1621 34.5418 17.3661C34.5418 17.7244 34.5118 18.0758 34.4542 18.4181C35.1847 18.9872 35.8713 19.6498 36.5055 20.3942C36.9807 20.2426 37.4775 20.1025 37.9373 19.9728L37.9375 19.9727L37.9376 19.9727L37.9379 19.9726L37.9379 19.9726L37.9381 19.9725C38.222 19.8925 38.4918 19.8164 38.7337 19.744C39.4978 19.5154 40.1648 19.2771 40.7781 18.9411C41.9303 18.3099 43.0791 17.2336 44.0598 14.7712C44.3663 14.0015 45.2387 13.6261 46.0083 13.9326C46.778 14.2392 47.1534 15.1115 46.8469 15.8812C45.6458 18.897 44.0673 20.5599 42.2195 21.5721C41.3328 22.0579 40.4317 22.3674 39.5935 22.6181C39.2507 22.7207 38.9374 22.8087 38.6366 22.8931L38.6362 22.8932C38.5272 22.9239 38.4197 22.954 38.3131 22.9842C39.4342 24.9487 40.2634 27.2415 40.7114 29.7401H50.5001C51.3285 29.7401 52.0001 30.4116 52.0001 31.2401C52.0001 32.0685 51.3285 32.7401 50.5001 32.7401H41.0558C41.0783 33.1705 41.0897 33.6051 41.0897 34.0433C41.0897 36.2366 40.803 38.338 40.2783 40.281C40.4566 40.3325 40.6356 40.3828 40.8193 40.4343L40.8197 40.4344L40.8208 40.4347C41.1212 40.5191 41.4342 40.607 41.7766 40.7094C42.6148 40.9602 43.5159 41.2697 44.4026 41.7554C46.2504 42.7677 47.8289 44.4306 49.03 47.4464C49.3365 48.216 48.9611 49.0884 48.1915 49.3949C47.4218 49.7014 46.5494 49.326 46.2429 48.5564C45.2622 46.0939 44.1134 45.0177 42.9612 44.3865C42.3479 44.0505 41.6809 43.8121 40.9168 43.5835C40.6752 43.5113 40.4059 43.4353 40.1225 43.3554L40.1214 43.3551L40.121 43.355C39.855 43.2799 39.5765 43.2014 39.297 43.1191C37.0236 48.4326 32.8149 52 27.9989 52C23.183 52 18.9745 48.4329 16.701 43.1198C16.4222 43.2018 16.1444 43.2801 15.879 43.355L15.8787 43.3551C15.5949 43.4351 15.3251 43.5112 15.0833 43.5835C14.3192 43.8121 13.6521 44.0505 13.0388 44.3865C11.8866 45.0177 10.7379 46.0939 9.75716 48.5564C9.45064 49.326 8.57825 49.7014 7.80861 49.3949C7.03898 49.0884 6.66355 48.216 6.97007 47.4464C8.17117 44.4306 9.74969 42.7677 11.5975 41.7554C12.4841 41.2697 13.3853 40.9602 14.2234 40.7094C14.5653 40.6071 14.8777 40.5194 15.1776 40.4352L15.1791 40.4348L15.1804 40.4344L15.1807 40.4343C15.3637 40.383 15.542 40.3329 15.7196 40.2816C15.1947 38.3385 14.908 36.2368 14.908 34.0433C14.908 33.6051 14.9195 33.1705 14.942 32.7401H5.5C4.67157 32.7401 4 32.0685 4 31.2401C4 30.4116 4.67157 29.7401 5.5 29.7401H15.2863C15.7344 27.2413 16.5637 24.9483 17.6849 22.9837C17.579 22.9536 17.4722 22.9237 17.3638 22.8932L17.3635 22.8931C17.0627 22.8087 16.7494 22.7207 16.4065 22.6181C15.5684 22.3674 14.6673 22.0579 13.7806 21.5721C11.9328 20.5599 10.3543 18.897 9.15317 15.8812C8.84665 15.1115 9.22208 14.2392 9.99171 13.9326C10.7613 13.6261 11.6337 14.0015 11.9403 14.7712C12.921 17.2336 14.0697 18.3099 15.2219 18.9411C15.8352 19.2771 16.5023 19.5154 17.2664 19.744C17.5083 19.8164 17.7781 19.8925 18.062 19.9725L18.062 19.9726L18.0621 19.9726L18.0621 19.9726L18.0622 19.9726L18.0622 19.9726C18.5216 20.1022 19.0179 20.2422 19.4927 20.3936C20.1255 19.651 20.8105 18.9897 21.5391 18.4215C21.4811 18.0782 21.4509 17.7256 21.4509 17.3661C21.4509 15.1618 22.5858 13.2172 24.3143 12.0628V10.9761C24.3143 10.132 24.1065 9.35606 23.6376 8.69704C23.1715 8.04189 22.3665 7.38838 20.9747 6.92263C20.1891 6.65973 19.7654 5.80975 20.0283 5.02415C20.2912 4.23854 21.1411 3.8148 21.9267 4.0777C23.8077 4.70714 25.1845 5.69641 26.082 6.95785C26.9768 8.21542 27.3143 9.6299 27.3143 10.9761V10.9869C27.5385 10.9642 27.7661 10.9525 27.9964 10.9525C28.227 10.9525 28.4548 10.9642 28.6793 10.987V10.9761C28.6793 9.6299 29.0168 8.21542 29.9116 6.95785C30.8091 5.69641 32.1859 4.70714 34.0669 4.0777C34.8525 3.8148 35.7024 4.23854 35.9653 5.02415C36.2282 5.80975 35.8045 6.65973 35.0189 6.92263C33.6271 7.38838 32.8221 8.04189 32.356 8.69704C31.8871 9.35606 31.6793 10.132 31.6793 10.9761V12.0633ZM31.4958 17.9199L31.1986 19.6848L32.6105 20.7847C35.6916 23.1849 38.0897 28.0598 38.0897 34.0433C38.0897 38.4351 36.7877 42.2897 34.8313 44.9733C32.873 47.6595 30.4207 49 27.9989 49C25.577 49 23.1247 47.6595 21.1664 44.9733C19.21 42.2897 17.908 38.4351 17.908 34.0433C17.908 28.0621 20.3043 23.1885 23.3838 20.7874L24.7954 19.6867L24.4972 17.9217C24.467 17.7427 24.4509 17.5573 24.4509 17.3661C24.4509 15.5381 25.9804 13.9525 27.9964 13.9525C30.0123 13.9525 31.5418 15.5381 31.5418 17.3661C31.5418 17.5567 31.5259 17.7415 31.4958 17.9199Z" fill="#2E796D"/>
</svg>
