<svg width="24" height="25" viewBox="0 0 24 25" fill="none" xmlns="http://www.w3.org/2000/svg">
    <path
        d="M17 2.58594H7C4.23858 2.58594 2 4.82451 2 7.58594V17.5859C2 20.3474 4.23858 22.5859 7 22.5859H17C19.7614 22.5859 22 20.3474 22 17.5859V7.58594C22 4.82451 19.7614 2.58594 17 2.58594Z"
        stroke="#234D43" stroke-width="1.5" stroke-linecap="round" stroke-linejoin="round" />
    <path
        d="M16 11.9562C16.1234 12.7885 15.9812 13.6385 15.5937 14.3853C15.2062 15.1321 14.5931 15.7377 13.8416 16.1159C13.0901 16.4942 12.2384 16.6258 11.4077 16.4922C10.5771 16.3585 9.80971 15.9663 9.21479 15.3714C8.61987 14.7765 8.22768 14.0091 8.09402 13.1785C7.96035 12.3478 8.09202 11.4961 8.47028 10.7446C8.84854 9.99309 9.45414 9.37998 10.2009 8.99248C10.9477 8.60498 11.7977 8.46283 12.63 8.58624C13.4789 8.71212 14.2648 9.1077 14.8716 9.71455C15.4785 10.3214 15.8741 11.1073 16 11.9562Z"
        stroke="#234D43" stroke-width="1.5" stroke-linecap="round" stroke-linejoin="round" />
    <path d="M17.5 7.08594H17.51" stroke="#234D43" stroke-width="2" stroke-linecap="round" stroke-linejoin="round" />
</svg>
