<svg width="24" height="25" viewBox="0 0 24 25" fill="none" xmlns="http://www.w3.org/2000/svg">
    <path
        d="M18.3196 5.9955C17.1347 5.22287 16.2796 3.98622 16.0128 2.54554C15.9552 2.23435 15.9232 1.91377 15.9232 1.58594H12.1411L12.1347 16.7436C12.0716 18.4413 10.6744 19.8034 8.96181 19.8034C8.42951 19.8034 7.92836 19.6707 7.48698 19.438C6.47487 18.9057 5.78206 17.845 5.78206 16.6245C5.78206 14.8714 7.20866 13.4448 8.96139 13.4448C9.2888 13.4448 9.60255 13.499 9.89922 13.5916V9.73061C9.59187 9.68835 9.27983 9.66274 8.96139 9.66274C5.12298 9.66274 2 12.7853 2 16.6245C2 18.9796 3.17645 21.064 4.97229 22.3241C6.10264 23.1185 7.47844 23.5859 8.96181 23.5859C12.8007 23.5859 15.9232 20.463 15.9232 16.6245V8.93791C17.4066 10.0025 19.2242 10.63 21.1857 10.63V6.84753C20.1291 6.84753 19.1452 6.53378 18.3196 5.9955Z"
        stroke="#234D43" stroke-width="1.5" stroke-linecap="round" stroke-linejoin="round" />
</svg>
